<svg width="50" height="50" viewBox="0 0 50 50" fill="none" xmlns="http://www.w3.org/2000/svg">
<path d="M45.3098 35.9542C45.0753 35.7197 44.7627 35.6415 44.5282 35.6415C44.2937 35.6415 43.9028 35.7197 43.7465 35.9542L43.1993 36.5014L43.512 39.5499L45.3098 37.6739C45.7789 37.2049 45.7789 36.4232 45.3098 35.9542ZM42.5739 45.6471L40.776 30.5605V30.4823L40.2289 25.4795L39.5253 20.7112C39.4472 20.0077 38.6655 19.7731 38.1183 20.2422L29.676 27.9809C29.3633 28.2936 29.2852 28.6844 29.5197 29.0753C32.8028 34.1563 37.3366 42.5204 40.1507 49.3211C40.2289 49.3993 40.2289 49.4774 40.307 49.5556C40.5415 49.7901 40.9324 49.8683 41.2451 49.5556C42.2612 48.5394 42.7303 47.1324 42.5739 45.6471ZM20.9211 46.1943L18.8105 38.9246C18.6542 38.4556 18.107 38.2211 17.638 38.3774C16.8563 38.7683 15.9182 39.0809 14.9802 39.2373C14.433 39.3154 14.1203 40.019 14.433 40.488L18.9668 47.2887C19.2795 47.7577 19.9049 47.7577 20.2175 47.445L20.6084 47.0542C20.9211 46.7415 20.9992 46.4288 20.9211 46.1943ZM14.8239 34.469C14.7457 34.3908 14.5894 34.3126 14.433 34.3126C14.2767 34.3126 14.1203 34.3908 14.0422 34.469L9.35203 39.2373C9.11752 39.4718 9.11752 39.7845 9.35203 39.9408C9.50836 40.1753 9.89921 40.1753 10.0555 39.9408L14.8239 35.1725C15.0584 35.0161 15.0584 34.6253 14.8239 34.469ZM10.4464 30.7168L3.64567 29.0753C3.333 28.9971 3.09849 29.0753 2.86398 29.3098L2.39497 29.7788C2.00412 30.1696 2.08229 30.795 2.47314 31.0295L8.72667 35.2506C9.27386 35.5633 9.89921 35.3288 10.0555 34.7035C10.2119 33.7654 10.6027 32.7492 10.9936 31.8894C11.2281 31.4204 10.9936 30.8732 10.4464 30.7168ZM28.6598 10.6274L24.126 9.92383L19.1232 9.37664L4.03652 7.57875C2.62948 7.42241 1.22243 7.89143 0.206231 8.90763C-0.106446 9.22031 -0.028277 9.61115 0.206231 9.84566C0.2844 9.92383 0.2844 9.92383 0.440738 10.002C6.77244 12.5816 14.902 17.1154 20.2175 20.5548C20.5302 20.7893 20.9992 20.7112 21.2337 20.3985L29.1288 12.0344C29.5978 11.5654 29.2852 10.7837 28.6598 10.6274ZM13.7295 4.76466C13.2605 4.29565 12.4788 4.29565 12.0098 4.76466L10.1337 6.56255L13.1041 6.87523L13.6513 6.32805C13.8858 6.09354 13.964 5.78086 13.964 5.54635C14.0422 5.31185 13.964 4.99917 13.7295 4.76466ZM24.2042 6.32805C23.7352 5.85903 22.9535 5.85903 22.4844 6.32805L20.9211 7.81326L23.8915 8.12594L24.126 7.89143C24.6732 7.50058 24.6732 6.79706 24.2042 6.32805ZM49.3746 0.621695C47.6549 -1.09803 42.0267 1.01254 39.2127 3.74846L13.495 31.0295C12.9478 31.5767 12.2443 32.9056 11.9316 34.3126L12.9478 33.2964C13.8077 32.4366 15.2147 32.4366 16.0746 33.2964C16.9344 34.1563 16.9344 35.5633 16.0746 36.4232L14.8239 37.5176C16.3091 37.2049 17.7943 36.4232 18.4197 35.876L46.1697 10.5492C48.2803 8.51678 50 4.921 50 2.49776C50 1.63789 49.7655 1.01254 49.3746 0.621695ZM45.7789 7.34425C45.7007 7.34425 45.7007 7.34425 45.7789 7.34425C45.3098 7.34425 44.919 7.03157 44.8408 6.64072C44.7627 6.32805 44.5282 5.39002 43.3556 5.31185H43.1211C42.6521 5.31185 42.2613 4.921 42.3394 4.45199C42.4176 3.98297 42.7303 3.59212 43.1993 3.59212H43.4338C45.0753 3.67029 46.2479 4.76466 46.4824 6.40621C46.5606 6.87523 46.1697 7.26608 45.7789 7.34425ZM43.8246 25.4795C43.5901 25.245 43.2775 25.1668 43.0429 25.1668C42.8084 25.1668 42.4176 25.3232 42.2612 25.4795L42.0267 25.714L42.3394 28.6844L43.8246 27.121C44.2155 26.7302 44.2155 25.9485 43.8246 25.4795Z" fill="#080E1E"/>
</svg>
