<svg width="50" height="39" viewBox="0 0 50 39" fill="none" xmlns="http://www.w3.org/2000/svg">
<path d="M11.7188 32.2266C11.7188 28.9904 9.09541 26.3672 5.85938 26.3672C2.62334 26.3672 0 28.9904 0 32.2266C0 35.4626 2.62334 38.0859 5.85938 38.0859C9.09541 38.0859 11.7188 35.4626 11.7188 32.2266ZM4.39453 30.7617H7.32422V33.6914H4.39453V30.7617Z" fill="#080E1E"/>
<path d="M38.2812 0.740967V14.6484H46.791C45.9364 9.08403 42.9006 4.08511 38.2812 0.740967Z" fill="#080E1E"/>
<path d="M7.32422 17.5781H0V25.7234C1.5585 24.318 3.6002 23.4375 5.85938 23.4375C8.11856 23.4375 10.1603 24.318 11.7188 25.7234V21.9727C11.7188 19.5456 9.75127 17.5781 7.32422 17.5781Z" fill="#080E1E"/>
<path d="M44.1406 26.3672C40.9046 26.3672 38.2812 28.9904 38.2812 32.2266C38.2812 35.4626 40.9046 38.0859 44.1406 38.0859C47.3767 38.0859 50 35.4626 50 32.2266C50 28.9904 47.3767 26.3672 44.1406 26.3672ZM45.6055 33.6914H42.6758V30.7617H45.6055V33.6914Z" fill="#080E1E"/>
<path d="M45.6055 17.5781H35.3516V0C26.2948 0 20.3454 0 7.32422 0C3.28447 0 0 3.28584 0 7.32422V14.6484H5.85938V5.85938H17.6758V29.2969H14.1086C14.4369 30.2178 14.6484 31.1942 14.6484 32.2266H35.3516C35.3516 27.38 39.294 23.4375 44.1406 23.4375C46.3998 23.4375 48.4415 24.318 50 25.7234V21.9727C50 19.5456 48.0325 17.5781 45.6055 17.5781ZM29.3945 24.9023C29.3945 27.3256 27.4232 29.2969 25 29.2969H20.6055V23.4375H26.4648V20.5078H20.6055V5.85938C21.5954 5.85938 29.8354 5.85938 29.3945 5.85938V24.9023Z" fill="#080E1E"/>
</svg>
