<svg width="50" height="45" viewBox="0 0 50 45" fill="none" xmlns="http://www.w3.org/2000/svg">
<path d="M47.8675 15.7213C47.642 15.7213 47.4104 15.7535 47.1793 15.8174L44.751 16.4862L42.1842 10.234C41.4151 8.36017 39.1413 6.83552 37.1154 6.83552H35.4075V1.65221C35.4075 0.74107 34.6664 0 33.7553 0H16.2449C15.3338 0 14.5927 0.74107 14.5927 1.65221V6.83552H12.8496C10.8239 6.83552 8.54985 8.35995 7.7808 10.2338L5.21745 16.4774L2.82087 15.8171C2.58978 15.7535 2.35803 15.7211 2.13267 15.7211C0.897039 15.7213 0 16.6655 0 17.9661V19.2949C0 20.8134 1.23541 22.0486 2.75368 22.0486H2.93036L2.56379 22.9412C1.84915 24.6822 1.26757 27.6298 1.26757 29.5115V41.9848C1.26757 43.5033 2.50276 44.7385 4.02125 44.7385H7.33162C8.85011 44.7385 10.0853 43.5033 10.0853 41.9848V38.9192H39.8799V41.9848C39.8799 43.5033 41.1153 44.7385 42.6336 44.7385H45.9433C47.4618 44.7385 48.697 43.5033 48.697 41.9848V29.5115C48.697 27.6298 48.1154 24.6822 47.4007 22.9412L47.0342 22.0486H47.2463C48.7648 22.0486 50 20.8134 50 19.2949V17.9661C50 16.6655 49.1032 15.7213 47.8675 15.7213ZM31.6369 2.20338C31.6369 2.16704 31.6667 2.1373 31.703 2.1373H32.9759C33.0122 2.1373 33.042 2.16704 33.042 2.20338V6.78485C33.042 6.80688 33.0294 6.8234 33.0129 6.83552H31.666C31.6495 6.8234 31.6369 6.80688 31.6369 6.78485V2.20338ZM22.5079 2.1373H24.0374C24.0738 2.1373 24.1145 2.16483 24.128 2.19876L25.9434 6.76238L27.6075 4.70373C27.6304 4.67553 27.6326 4.6275 27.6126 4.59732L26.0154 2.19237C25.9952 2.16197 26.0086 2.1373 26.045 2.1373H27.4595C27.4958 2.1373 27.5412 2.16263 27.5602 2.19347L28.3834 3.5289C28.4023 3.55996 28.4336 3.55996 28.4526 3.5289L29.2765 2.19347C29.2954 2.16241 29.3408 2.1373 29.3771 2.1373H30.7923C30.8287 2.1373 30.8419 2.16197 30.8218 2.19237L29.2234 4.59732C29.2031 4.62772 29.2055 4.67553 29.2282 4.70373L30.9227 6.79961C30.9342 6.81349 30.9368 6.82648 30.9326 6.83573H29.4307C29.4108 6.82538 29.393 6.8115 29.3826 6.79498L28.4528 5.30689C28.4334 5.27605 28.4021 5.27605 28.3827 5.30689L27.4549 6.79498C27.4445 6.8115 27.4267 6.82538 27.4068 6.83573H24.5767C24.5573 6.82428 24.5406 6.80842 24.5342 6.78837L24.2223 5.83318C24.211 5.79859 24.172 5.77039 24.1357 5.77039H22.402C22.3656 5.77039 22.326 5.79837 22.3141 5.83273L21.9779 6.78881C21.9708 6.80864 21.9541 6.8245 21.9345 6.83573H20.5733C20.5625 6.8245 20.5579 6.80908 20.5656 6.78991L22.4169 2.19898C22.4308 2.16483 22.4716 2.1373 22.5079 2.1373ZM18.0315 6.78485V3.14558C18.0315 3.10924 18.0018 3.0795 17.9655 3.0795H16.4355C16.3992 3.0795 16.3694 3.04976 16.3694 3.01341V2.20316C16.3694 2.16682 16.3992 2.13708 16.4355 2.13708H21.0419C21.0782 2.13708 21.1079 2.16682 21.1079 2.20316V3.01341C21.1079 3.04976 21.0782 3.0795 21.0419 3.0795H19.5031C19.4668 3.0795 19.437 3.10924 19.437 3.14558V6.78485C19.437 6.80688 19.4245 6.8234 19.4079 6.83552H18.0606C18.0441 6.82362 18.0315 6.80688 18.0315 6.78485ZM7.16309 20.5138L11.0634 11.0127C11.5236 9.89188 12.8914 8.97479 14.103 8.97479H35.8619C37.0736 8.97479 38.4414 9.89188 38.9016 11.0127L42.8019 20.5138C43.2621 21.6347 42.6472 22.5518 41.4356 22.5518H8.52936C7.31774 22.5518 6.7029 21.6347 7.16309 20.5138ZM15.974 32.7494C15.974 33.3552 15.4783 33.8509 14.8725 33.8509H7.42789C6.82208 33.8509 6.32641 33.3552 6.32641 32.7494V29.2176C6.32641 28.6118 6.82208 28.1162 7.42789 28.1162H14.8725C15.4783 28.1162 15.974 28.6118 15.974 29.2176V32.7494ZM43.5672 32.7494C43.5672 33.3552 43.0715 33.8509 42.4657 33.8509H35.0211C34.4153 33.8509 33.9196 33.3552 33.9196 32.7494V29.2176C33.9196 28.6118 34.4153 28.1162 35.0211 28.1162H42.4657C43.0715 28.1162 43.5672 28.6118 43.5672 29.2176V32.7494Z" fill="#080E1E"/>
<path d="M23.8264 4.82803C23.8627 4.82803 23.8806 4.80072 23.8662 4.76745L23.3173 3.50054C23.3027 3.46728 23.2785 3.46683 23.2635 3.49988L22.6822 4.76811C22.6672 4.80116 22.6844 4.82803 22.7207 4.82803H23.8264Z" fill="#080E1E"/>
</svg>
