<svg width="43" height="50" viewBox="0 0 43 50" fill="none" xmlns="http://www.w3.org/2000/svg">
<path d="M21.0526 0C10.5263 0 0 1.31583 0 10.5263V35.5263C0 40.6052 4.13153 44.7368 9.21055 44.7368L5.26319 48.6842V50H11.1316L16.3948 44.7368H26.3158L31.5789 49.9999H36.8421V48.684L32.8947 44.7367C37.9736 44.7367 42.1053 40.6052 42.1053 35.5261V10.5263C42.1052 1.31583 32.6842 0 21.0526 0ZM9.21055 39.4736C7.0263 39.4736 5.26319 37.7105 5.26319 35.5263C5.26319 33.342 7.0263 31.5789 9.21055 31.5789C11.3948 31.5789 13.1579 33.342 13.1579 35.5263C13.1579 37.7105 11.3947 39.4736 9.21055 39.4736ZM18.421 21.0526H5.26319V10.5263H18.4211V21.0526H18.421ZM32.8947 39.4736C30.7105 39.4736 28.9474 37.7105 28.9474 35.5263C28.9474 33.342 30.7105 31.5789 32.8947 31.5789C35.079 31.5789 36.8421 33.342 36.8421 35.5263C36.8421 37.7105 35.0788 39.4736 32.8947 39.4736ZM36.8421 21.0526H23.6842V10.5263H36.8421V21.0526Z" fill="#080E1E"/>
</svg>
