<svg width="45" height="53" viewBox="0 0 45 53" fill="none" xmlns="http://www.w3.org/2000/svg">
<path d="M22.0124 7.62939e-06C16.1761 0.00695419 10.5809 2.32864 6.45418 6.45573C2.3275 10.5828 0.00636674 16.1783 0 22.0146C0 33.5489 17.8592 48.9784 19.9019 50.7017L22.0167 52.4885L24.1316 50.7017C26.1699 48.9784 44.0335 33.5489 44.0335 22.0146C44.0271 16.1768 41.7048 10.58 37.5762 6.45264C33.4477 2.3253 27.8502 0.00463871 22.0124 7.62939e-06ZM22.0124 43.8345C15.3092 37.7283 6.55669 27.808 6.55669 22.0146C6.55669 17.9155 8.18505 13.9843 11.0836 11.0857C13.9821 8.18725 17.9133 6.55889 22.0124 6.55889C26.1115 6.55889 30.0427 8.18725 32.9412 11.0857C35.8397 13.9843 37.4681 17.9155 37.4681 22.0146C37.4681 27.7971 28.7134 37.7218 22.0124 43.8345Z" fill="#00C2AF"/>
<path d="M22.0088 28.3845C25.6288 28.3845 28.5634 25.4499 28.5634 21.83C28.5634 18.21 25.6288 15.2755 22.0088 15.2755C18.3889 15.2755 15.4543 18.21 15.4543 21.83C15.4543 25.4499 18.3889 28.3845 22.0088 28.3845Z" fill="#00C2AF"/>
</svg>
