<svg width="22" height="16" viewBox="0 0 22 16" fill="none" xmlns="http://www.w3.org/2000/svg">
<path d="M22 5.27293V14.8956C21.894 15.0859 21.8184 15.3009 21.676 15.4592C21.3361 15.8398 20.8698 15.9168 20.3831 15.9168C14.1278 15.9168 7.87108 15.9168 1.61578 15.9154C1.46615 15.9154 1.31507 15.9081 1.16689 15.8849C0.598891 15.7963 -0.0519165 15.3851 0.00328593 14.5586C0.0163602 14.3595 0.00473862 14.1576 0.00473862 13.9571C0.00473862 11.1723 0.00764401 8.38896 0.00183323 5.60414C0.00183323 5.21191 0.128218 4.88796 0.430378 4.64246C0.768856 4.36645 1.17271 4.29236 1.59835 4.29236C7.86818 4.29236 14.1395 4.29236 20.4093 4.29236C21.14 4.29236 21.7254 4.53205 22 5.27293ZM14.6363 9.84456C14.2847 10.1787 13.9288 10.4474 13.6615 10.7874C13.323 11.2159 12.9512 11.351 12.4529 11.1404C12.1623 11.0169 11.943 11.0997 11.7498 11.3437C11.6437 11.4774 11.6219 11.5631 11.7498 11.6866C11.9938 11.919 12.2277 12.1602 12.466 12.3984C12.8756 12.8081 13.2824 13.2221 13.7007 13.6245C13.756 13.6782 13.8925 13.7204 13.9477 13.6898C14.2499 13.5228 14.3254 13.3267 14.2528 12.9911C14.2455 12.9562 14.2412 12.9199 14.2266 12.8865C14.0203 12.3911 14.1685 12.0251 14.5869 11.6982C14.9312 11.4295 15.2188 11.0881 15.5428 10.7685C15.5994 10.8658 15.643 10.9399 15.6837 11.014C16.1384 11.8406 16.5931 12.6671 17.0492 13.4937C17.1887 13.745 17.2555 13.7538 17.4618 13.5504C17.5838 13.4298 17.6971 13.2976 17.8293 13.1887C17.9484 13.0899 17.9513 12.9896 17.9092 12.8531C17.594 11.8217 17.2918 10.7859 16.9708 9.75449C16.9127 9.56564 16.9344 9.44652 17.0884 9.31433C17.424 9.02379 17.7451 8.71727 18.0632 8.40784C18.3029 8.17541 18.3886 7.88487 18.2942 7.56238C18.2143 7.28636 18.0167 7.11204 17.7363 7.05248C17.4138 6.98275 17.1451 7.09897 16.9243 7.33285C16.6207 7.65535 16.3112 7.97494 16.0193 8.30906C15.9016 8.44271 15.7955 8.46159 15.6314 8.4093C14.7641 8.14055 13.894 7.88342 13.0238 7.62484C12.7928 7.55656 12.5342 7.40548 12.3323 7.45923C12.1275 7.51298 11.9779 7.77302 11.8035 7.94298C11.7934 7.95315 11.7832 7.96332 11.773 7.97349C11.6495 8.10423 11.6612 8.20882 11.8253 8.29599C12.1028 8.44561 12.3773 8.5996 12.6519 8.75068C13.2896 9.10223 13.9274 9.45378 14.6363 9.84311V9.84456ZM6.80481 5.50536H5.30417V6.79681H6.80481V5.50536ZM5.29545 9.42618H6.79899V8.13619H5.29545V9.42618ZM5.29691 12.0686H6.8019V10.783H5.29691V12.0686ZM6.80626 13.4109H5.30417V14.7111H6.80626V13.4109Z" fill="#080E1E"/>
<path d="M4.10229 2.67569C4.47418 2.60886 4.84462 2.54204 5.21651 2.47521C7.78633 2.02197 10.3576 1.56873 12.9274 1.11549C14.8072 0.784276 16.6855 0.44144 18.5682 0.124752C19.3527 -0.00744335 20.0674 0.163975 20.6035 0.801708C20.7342 0.957146 20.8533 1.146 20.9013 1.33921C21.0175 1.79971 21.0887 2.27329 21.1787 2.7367H4.10811C4.10665 2.71636 4.10375 2.69602 4.10229 2.67569Z" fill="#080E1E"/>
</svg>
