<svg width="21" height="24" viewBox="0 0 21 24" fill="none" xmlns="http://www.w3.org/2000/svg">
<path d="M10.065 0C7.3964 0.00317627 4.83802 1.06475 2.95113 2.95183C1.06423 4.83891 0.00291114 7.3974 0 10.066C0 15.34 8.166 22.395 9.1 23.183L10.067 24L11.034 23.183C11.966 22.395 20.134 15.34 20.134 10.066C20.1311 7.39671 19.0692 4.83762 17.1815 2.95042C15.2937 1.06322 12.7343 0.00211753 10.065 0ZM10.065 20.043C7 17.251 2.998 12.715 2.998 10.066C2.998 8.19172 3.74256 6.3942 5.06788 5.06888C6.3932 3.74356 8.19072 2.999 10.065 2.999C11.9393 2.999 13.7368 3.74356 15.0621 5.06888C16.3874 6.3942 17.132 8.19172 17.132 10.066C17.132 12.71 13.129 17.248 10.065 20.043Z" fill="#080E1E"/>
<path d="M10.0634 12.9786C11.7186 12.9786 13.0604 11.6368 13.0604 9.98162C13.0604 8.32642 11.7186 6.98462 10.0634 6.98462C8.40821 6.98462 7.06641 8.32642 7.06641 9.98162C7.06641 11.6368 8.40821 12.9786 10.0634 12.9786Z" fill="#080E1E"/>
</svg>
