<svg width="20" height="24" viewBox="0 0 20 24" fill="none" xmlns="http://www.w3.org/2000/svg">
<path d="M10.0634 0C10.2666 0.129623 10.3345 0.317482 10.3258 0.554184C10.3146 0.857889 10.3276 1.16222 10.3214 1.46655C10.3189 1.59116 10.3538 1.65754 10.4785 1.70952C10.8824 1.87734 11.1436 2.1873 11.2676 2.60623C11.3536 2.89741 11.4265 3.19235 11.4939 3.48791C11.5574 3.77033 11.3916 3.9895 11.1006 3.992C10.3164 3.99952 9.53229 3.99952 8.74878 3.992C8.4471 3.98887 8.28816 3.76594 8.35859 3.46662C8.42279 3.19423 8.4951 2.92308 8.5674 2.65257C8.68521 2.2111 8.94949 1.88923 9.36774 1.71014C9.48991 1.65754 9.5298 1.59492 9.52668 1.46843C9.51983 1.17224 9.53354 0.875422 9.5217 0.579858C9.51172 0.336267 9.5753 0.137763 9.78411 0H10.064H10.0634Z" fill="#080E1E"/>
<path d="M9.92482 18.7971C12.8631 18.7971 15.8021 18.7971 18.7404 18.7971C19.1873 18.7971 19.292 18.8998 19.345 19.3494C19.5064 20.7133 19.6716 22.0765 19.8393 23.4397C19.8841 23.8048 19.7333 23.9977 19.3736 23.9983C17.0337 23.9996 14.6938 23.9996 12.3539 23.9983C12.0098 23.9983 11.8696 23.8618 11.8677 23.5186C11.864 22.7847 11.8677 22.0502 11.8664 21.3163C11.8664 20.8736 11.7493 20.7534 11.3192 20.7527C10.3786 20.7521 9.43802 20.7515 8.49743 20.7527C8.10973 20.7527 7.98008 20.8824 7.97884 21.2737C7.97634 22.0076 7.97884 22.7422 7.97759 23.4761C7.97634 23.8681 7.84794 23.9983 7.46273 23.9983C5.14587 23.9983 2.82963 23.9983 0.512775 23.9983C0.101387 23.9983 -0.0407285 23.8223 0.00975993 23.4122C0.176185 22.0646 0.339493 20.717 0.497815 19.3682C0.55329 18.8929 0.650527 18.7971 1.13173 18.7971C4.06255 18.7971 6.99338 18.7971 9.92358 18.7971H9.92482Z" fill="#080E1E"/>
<path d="M9.92714 14.3478C9.29759 14.3478 8.66804 14.3465 8.03787 14.3478C7.67884 14.349 7.54172 14.4855 7.5386 14.8399C7.53673 15.0823 7.54545 15.3246 7.53361 15.5657C7.52987 15.6358 7.47066 15.7035 7.43762 15.7724C7.39711 15.706 7.33104 15.6434 7.31919 15.572C7.17209 14.6634 7.03434 13.7535 6.8916 12.8443C6.82179 12.399 6.63916 12.002 6.30568 11.7002C6.0869 11.5017 6.03953 11.2982 6.09438 11.0145C6.42598 9.29936 6.73826 7.58108 7.06613 5.8653C7.19079 5.21406 7.64893 4.81204 8.29967 4.80327C9.37987 4.78825 10.4607 4.78887 11.5415 4.80327C12.1948 4.81204 12.656 5.2103 12.78 5.85967C13.1185 7.62867 13.4489 9.39955 13.7699 11.1723C13.7917 11.2925 13.7537 11.4823 13.6701 11.5549C13.0992 12.0496 12.954 12.7146 12.8611 13.4166C12.7651 14.1436 12.6435 14.8669 12.5264 15.5908C12.5158 15.6565 12.4541 15.7141 12.4167 15.7761C12.3811 15.7091 12.3182 15.6434 12.3144 15.5751C12.302 15.3259 12.3113 15.0754 12.3088 14.8255C12.3051 14.498 12.1642 14.3521 11.8401 14.3503C11.2024 14.3471 10.5654 14.349 9.92776 14.349L9.92714 14.3478ZM9.41478 7.55228C9.41478 7.48214 9.42288 7.41138 9.41353 7.3425C9.38423 7.13648 9.25209 7.02251 9.05512 7.00623C8.86751 6.99058 8.72165 7.08075 8.66119 7.2661C8.63252 7.35252 8.62815 7.44895 8.62691 7.541C8.6213 7.95054 8.75967 8.15468 9.03268 8.15029C9.29822 8.14591 9.42288 7.95492 9.41478 7.55165V7.55228ZM10.4314 7.55854H10.4283C10.4283 7.62867 10.4233 7.69881 10.4289 7.76831C10.447 7.98435 10.596 8.13714 10.7967 8.14967C10.983 8.16157 11.1719 8.03319 11.1981 7.83469C11.2218 7.65309 11.2211 7.46085 11.1869 7.28176C11.1482 7.08075 10.983 6.9887 10.7848 7.00686C10.5879 7.02502 10.4588 7.14274 10.4326 7.34876C10.4239 7.41764 10.4314 7.4884 10.4314 7.55854ZM9.08754 10.0821C9.08754 10.0821 9.0813 10.0821 9.07819 10.0815C9.07819 10.0195 9.08317 9.95687 9.07756 9.89488C9.05512 9.65504 8.89181 9.50225 8.66742 9.50789C8.44053 9.51352 8.2953 9.66694 8.28595 9.91805C8.28159 10.042 8.27785 10.1679 8.29032 10.2906C8.31151 10.4935 8.43118 10.6175 8.63314 10.64C8.84694 10.6645 8.99279 10.5605 9.05575 10.357C9.08255 10.27 9.07819 10.1735 9.08754 10.0815V10.0821ZM11.5596 10.084C11.5596 10.0139 11.5646 9.94372 11.5584 9.87421C11.5397 9.66631 11.4007 9.52542 11.2043 9.50914C10.9961 9.49223 10.8122 9.61497 10.7817 9.82349C10.758 9.98317 10.7586 10.1504 10.778 10.3107C10.8035 10.5204 10.983 10.6538 11.1869 10.6438C11.3932 10.6338 11.5397 10.4879 11.5584 10.27C11.5633 10.208 11.559 10.146 11.5584 10.0834L11.5596 10.084ZM8.71978 12.58C8.71978 12.58 8.7204 12.58 8.72103 12.58C8.72103 12.5099 8.72726 12.4397 8.71978 12.3702C8.69734 12.1536 8.54588 12.0027 8.34143 12.0039C8.12888 12.0052 7.97991 12.1154 7.94874 12.3258C7.92443 12.4917 7.92443 12.6683 7.95186 12.8342C7.98676 13.0459 8.14134 13.148 8.35389 13.143C8.55024 13.1386 8.69547 12.9952 8.71853 12.7892C8.72664 12.7203 8.71978 12.6495 8.71978 12.5794V12.58ZM11.1239 12.5706C11.1239 12.6326 11.1195 12.6952 11.1245 12.7572C11.142 12.9801 11.281 13.1279 11.4842 13.1436C11.6992 13.1605 11.8756 13.0265 11.9055 12.7992C11.9242 12.6545 11.9242 12.503 11.9068 12.3583C11.8794 12.1329 11.6998 11.9895 11.491 12.0033C11.2885 12.0164 11.1445 12.1648 11.1252 12.3846C11.1195 12.446 11.1245 12.5086 11.1239 12.5712V12.5706Z" fill="#080E1E"/>
<path d="M3.94973 11.8799C3.94973 11.4697 3.94973 11.0577 3.94973 10.6456C3.94973 10.4252 4.04011 10.2655 4.26513 10.2167C4.52381 10.1609 4.73449 10.3375 4.74197 10.6218C4.75069 10.965 4.74384 11.3088 4.74508 11.6525C4.74508 11.7289 4.75132 11.8047 4.75443 11.8799C4.91276 11.9043 5.0611 11.9118 5.2001 11.9519C5.69315 12.0946 6.00854 12.4265 6.09207 12.9312C6.33765 14.4241 6.56641 15.9194 6.79392 17.4154C6.85874 17.8406 6.71351 17.9997 6.29464 18.0003C4.9888 18.0009 3.68296 18.0009 2.37774 18.0003C1.96448 18.0003 1.81488 17.8193 1.87784 17.4167C2.10285 15.9839 2.32912 14.5506 2.54603 13.1166C2.66384 12.3395 3.07211 11.9531 3.86247 11.9018C3.88429 11.9005 3.90548 11.8911 3.94973 11.8799ZM4.74321 16.262C4.74321 16.0904 4.75007 15.9182 4.74134 15.7466C4.73012 15.5155 4.57305 15.3609 4.35863 15.3546C4.13611 15.3484 3.95971 15.5074 3.95285 15.7466C3.9435 16.0823 3.9435 16.4179 3.95285 16.7535C3.95971 16.9884 4.14421 17.1568 4.35925 17.1499C4.56682 17.143 4.73012 16.979 4.74134 16.7535C4.74945 16.5901 4.74321 16.4254 4.74321 16.262Z" fill="#080E1E"/>
<path d="M15.8945 11.8856C16.0397 11.9 16.1638 11.9006 16.2828 11.9256C16.8251 12.0377 17.1954 12.441 17.2864 13.0215C17.5195 14.5087 17.7495 15.9959 17.9795 17.4831C18.0262 17.7849 17.8611 17.9953 17.56 17.9966C16.1924 18.001 14.8243 18.001 13.4561 17.9966C13.1501 17.9953 12.9955 17.8075 13.0428 17.4837C13.17 16.6115 13.3077 15.741 13.443 14.8706C13.5384 14.2538 13.63 13.637 13.7353 13.0221C13.8556 12.3201 14.2814 11.9457 14.9876 11.9012C15.0169 11.8993 15.0462 11.8924 15.0998 11.8849C15.0998 11.4842 15.0985 11.0878 15.0998 10.692C15.101 10.3808 15.235 10.2136 15.4825 10.2073C15.7381 10.2005 15.8914 10.3783 15.8933 10.6914C15.8958 11.0878 15.8933 11.4835 15.8933 11.8862L15.8945 11.8856ZM15.8939 16.2633C15.8939 16.0917 15.9007 15.9195 15.892 15.7479C15.8795 15.5075 15.7106 15.3478 15.4881 15.3522C15.2749 15.3566 15.1098 15.5125 15.1035 15.741C15.0948 16.0767 15.0948 16.4123 15.1035 16.748C15.1091 16.9822 15.2918 17.1531 15.5056 17.1475C15.7119 17.1425 15.8795 16.9784 15.892 16.7542C15.9014 16.5908 15.8939 16.4267 15.8939 16.2627V16.2633Z" fill="#080E1E"/>
<path d="M9.9459 15.1467C10.3579 15.1467 10.7699 15.1454 11.1813 15.1467C11.4624 15.1479 11.511 15.1949 11.5117 15.4686C11.5129 16.21 11.5079 16.952 11.5148 17.6934C11.5167 17.9126 11.4369 18.0115 11.2143 18.0015C11.0205 17.9921 10.826 18.0015 10.6315 17.999C10.371 17.9965 10.3255 17.9502 10.3224 17.679C10.3193 17.3666 10.3311 17.0541 10.3149 16.7422C10.2987 16.4354 10.0201 16.2701 9.75205 16.3897C9.57815 16.4673 9.52516 16.6145 9.52392 16.7898C9.52205 17.0866 9.52454 17.3835 9.52205 17.6797C9.51955 17.9495 9.47281 17.9965 9.21164 17.9984C9.01716 18.0003 8.82269 17.9915 8.62884 18.0009C8.40507 18.0115 8.32715 17.9101 8.32965 17.6922C8.3365 16.9508 8.33152 16.2087 8.33276 15.4673C8.33276 15.1937 8.38138 15.1473 8.66374 15.1461C9.09134 15.1448 9.51831 15.1461 9.9459 15.1461V15.1467Z" fill="#080E1E"/>
<path d="M11.0697 22.7779C11.0697 23.0271 11.0741 23.277 11.0685 23.5262C11.061 23.8543 10.9183 23.9952 10.5947 23.9977C10.1447 24.0009 9.69468 24.0009 9.24465 23.9977C8.93362 23.9952 8.78464 23.8543 8.78028 23.5419C8.77342 23.0271 8.7728 22.513 8.78028 21.9983C8.78464 21.6946 8.92863 21.5568 9.22907 21.5543C9.69468 21.5499 10.1603 21.5499 10.6259 21.5543C10.9139 21.5574 11.056 21.694 11.0666 21.9833C11.0759 22.2481 11.0685 22.513 11.0685 22.7785H11.0691L11.0697 22.7779Z" fill="#080E1E"/>
</svg>
