<svg width="27" height="25" viewBox="0 0 27 25" fill="none" xmlns="http://www.w3.org/2000/svg">
<path d="M0.415039 11.4468C0.538157 11.1704 0.754281 11.0794 1.05605 11.0807C2.74223 11.0893 4.4284 11.0814 6.11391 11.0893C6.30193 11.09 6.3829 11.0339 6.4565 10.8605C6.66392 10.3684 6.90213 9.88891 7.12896 9.40479C7.15907 9.34015 7.19253 9.27749 7.24137 9.17987C6.86131 9.17987 6.51471 9.17987 6.16811 9.17987C5.592 9.17987 5.01656 9.18119 4.44045 9.17987C4.05972 9.17922 3.82352 8.98398 3.82954 8.68058C3.83557 8.38774 4.07043 8.19382 4.43309 8.19382C5.53512 8.19184 6.63649 8.19712 7.73853 8.18723C7.84425 8.18657 7.98342 8.12853 8.049 8.05004C9.4983 6.31999 11.3116 5.16047 13.5271 4.62425C13.6682 4.58995 13.7365 4.53652 13.7291 4.37889C13.7158 4.0834 13.7184 3.78659 13.7285 3.49045C13.7325 3.36051 13.6803 3.30709 13.5639 3.26092C12.7529 2.94103 12.3073 2.18912 12.4531 1.40424C12.607 0.569227 13.3016 0.0072754 14.1975 0.00331799C15.341 -0.00195854 16.4846 2.01576e-05 17.6281 0.00265843C18.5582 0.00463713 19.2507 0.544823 19.4079 1.38643C19.5652 2.22474 19.1129 2.95818 18.2323 3.29258C18.2095 3.30115 18.1868 3.31171 18.1567 3.32358V4.50025C18.8961 4.77727 19.6394 4.98569 20.3186 5.32075C23.5498 6.91558 25.4501 9.49383 25.9619 13.0199C26.3065 15.397 25.7625 17.6085 24.4825 19.6479C24.3514 19.8569 24.1781 19.9776 23.9238 19.9341C23.7043 19.8965 23.5424 19.7541 23.533 19.5423C23.5263 19.3847 23.5899 19.2033 23.6762 19.0648C24.2724 18.1084 24.6779 17.0815 24.8934 15.9807C25.7311 11.7021 23.2915 7.42081 19.1423 5.886C14.6947 4.24038 9.68298 6.25733 7.67898 10.499C5.26748 15.6027 8.14267 21.6035 13.6856 22.9873C16.1814 23.6105 18.5495 23.2484 20.7575 21.926C20.8077 21.8963 20.8559 21.8634 20.9068 21.8363C21.1764 21.6925 21.4608 21.7578 21.6066 21.9953C21.7518 22.2314 21.6836 22.513 21.424 22.6792C20.4785 23.2841 19.4568 23.722 18.3614 23.9799C13.4207 25.1407 8.51069 22.668 6.57493 18.0438C6.50401 17.8743 6.411 17.8334 6.2397 17.8341C5.20458 17.8407 4.16946 17.838 3.135 17.8367C3.0266 17.8367 2.91687 17.8367 2.81115 17.8182C2.5803 17.7767 2.41838 17.5722 2.41971 17.342C2.42105 17.1217 2.57227 16.9232 2.79308 16.8757C2.89746 16.8533 3.00854 16.852 3.11627 16.852C4.06775 16.85 5.01923 16.8513 5.97072 16.8506C6.01956 16.8506 6.06841 16.844 6.1293 16.8394C6.02759 16.2161 5.9279 15.6047 5.82151 14.9537C5.75526 14.9537 5.66694 14.9537 5.57929 14.9537C4.95299 14.9537 4.32737 14.9557 3.70107 14.9531C3.34377 14.9517 3.11359 14.7479 3.12162 14.4478C3.12898 14.1576 3.35246 13.9683 3.70107 13.967C4.40097 13.9644 5.10154 13.9664 5.80478 13.9664C5.88708 13.3358 5.96737 12.7204 6.05168 12.0741H5.76731C4.22298 12.0741 2.67866 12.0688 1.13501 12.078C0.828553 12.0787 0.582318 12.0081 0.415039 11.743V11.4468ZM15.9359 2.37182C16.5113 2.37182 17.0861 2.37446 17.6609 2.37116C18.1219 2.36853 18.4397 2.08293 18.439 1.68324C18.4384 1.28222 18.1212 0.993328 17.6582 0.99135C16.508 0.986733 15.3578 0.986733 14.2076 0.99135C13.7439 0.993328 13.4341 1.27958 13.4347 1.68521C13.4347 2.09481 13.7398 2.36787 14.2102 2.3705C14.785 2.3738 15.3604 2.37116 15.9352 2.37116L15.9359 2.37182ZM14.7395 4.36042H17.1309V3.37371H14.7395V4.36042Z" fill="#080E1E"/>
<path d="M0.414551 17.3815C0.457037 17.3282 0.499523 17.275 0.542826 17.2226C0.78222 16.9327 1.19483 16.904 1.45301 17.1595C1.70711 17.4118 1.69486 17.8147 1.42605 18.0505C1.15479 18.288 0.738917 18.2332 0.524034 17.9302C0.483182 17.8728 0.451318 17.8098 0.415368 17.7492C0.415368 17.6263 0.415368 17.5043 0.415368 17.3815H0.414551Z" fill="#080E1E"/>
<path d="M15.694 6.06689C20.0891 6.08252 23.6313 9.61286 23.6204 13.9677C23.6101 18.3172 20.0276 21.8584 15.6571 21.8387C11.2736 21.819 7.72452 18.2669 7.74299 13.9188C7.76146 9.57347 11.3276 6.05195 15.6933 6.06757L15.694 6.06689ZM15.6803 7.0843C11.8611 7.08566 8.76756 10.1582 8.76688 13.9514C8.76688 17.7365 11.8748 20.8233 15.6837 20.822C19.4948 20.8206 22.5992 17.7331 22.5965 13.948C22.5938 10.1535 19.4995 7.08294 15.6803 7.08498V7.0843Z" fill="#080E1E"/>
<path d="M22.4001 21.2048C22.4124 20.8681 22.6848 20.6152 23.0244 20.625C23.3575 20.6341 23.6275 20.9133 23.6209 21.2418C23.6135 21.5851 23.3198 21.8544 22.9728 21.8372C22.6364 21.8199 22.3878 21.5456 22.4001 21.2057V21.2048Z" fill="#080E1E"/>
<path d="M15.5373 15.7718C14.3719 15.7701 13.5518 14.8601 13.9324 13.9793C13.989 13.8483 13.9662 13.7732 13.8428 13.6812C13.504 13.4262 13.1763 13.1619 12.8493 12.8976C12.5767 12.6776 12.5561 12.4307 12.7846 12.2427C13.0139 12.054 13.3527 12.0698 13.6326 12.2881C13.9662 12.5477 14.2977 12.8085 14.6224 13.0746C14.7283 13.1613 14.815 13.1934 14.9752 13.1439C15.3455 13.0298 15.7328 13.0304 16.1039 13.1433C16.2618 13.191 16.3486 13.1631 16.4573 13.0763C17.2575 12.4365 18.0629 11.8014 18.8661 11.1651C18.9241 11.1191 18.98 11.0702 19.0439 11.0288C19.2776 10.8763 19.5884 10.8839 19.7927 11.0434C19.9955 11.2017 20.0146 11.4556 19.8191 11.6349C19.67 11.7717 19.5002 11.8957 19.3386 12.0238C18.6522 12.5681 17.9689 13.1154 17.2744 13.6539C17.1348 13.7622 17.0929 13.8454 17.1598 14.0049C17.5243 14.8735 16.6895 15.7736 15.5373 15.7718ZM15.541 13.9397C15.2 13.9397 14.9318 14.1534 14.9355 14.4218C14.9392 14.6779 15.2044 14.8922 15.5263 14.8991C15.8562 14.9061 16.1413 14.6866 16.1457 14.4223C16.1502 14.1545 15.8812 13.9403 15.541 13.9397Z" fill="#080E1E"/>
<path d="M16.29 9.09689C16.29 9.16603 16.2957 9.23572 16.2892 9.3043C16.2665 9.53402 16.0294 9.69683 15.7112 9.70463C15.3962 9.71244 15.1235 9.56022 15.0885 9.33608C15.065 9.18554 15.0674 9.03166 15.0845 8.88056C15.1113 8.64359 15.3792 8.48469 15.7096 8.49194C16.0416 8.49919 16.273 8.66478 16.2908 8.91067C16.2949 8.97255 16.2908 9.035 16.2908 9.09745C16.2908 9.09745 16.2908 9.09745 16.29 9.09745V9.09689Z" fill="#080E1E"/>
<path d="M21.1727 14.5577C20.9788 14.5473 20.7803 14.5545 20.5931 14.524C20.1671 14.4542 19.9204 14.1919 19.9596 13.8798C19.9966 13.5902 20.305 13.372 20.731 13.3527C20.9945 13.3407 21.259 13.3439 21.5236 13.3495C22.0304 13.3599 22.3903 13.6054 22.3981 13.9351C22.406 14.2625 22.0483 14.5208 21.5494 14.5457C21.425 14.5521 21.2994 14.5465 21.1738 14.5465C21.1738 14.5497 21.1738 14.5529 21.1738 14.5569L21.1727 14.5577Z" fill="#080E1E"/>
<path d="M15.0735 19.4218C15.0735 19.2841 15.0686 19.1464 15.0743 19.0088C15.0946 18.5547 15.3299 18.2238 15.6457 18.2005C15.9581 18.1772 16.2373 18.4803 16.2747 18.9255C16.2998 19.2242 16.2958 19.5317 16.2795 19.8326C16.2544 20.3011 15.9809 20.6376 15.6611 20.6253C15.3389 20.6131 15.0913 20.2645 15.0735 19.7926C15.0686 19.6694 15.0735 19.545 15.0735 19.4207V19.4218Z" fill="#080E1E"/>
<path d="M10.8036 13.3445C10.8872 13.3502 10.9718 13.3461 11.0548 13.3623C11.2562 13.4005 11.3964 13.6244 11.4076 13.9124C11.4194 14.2199 11.2971 14.4884 11.0885 14.5298C10.904 14.5663 10.7111 14.5663 10.526 14.5338C10.318 14.4982 10.18 14.2223 10.1873 13.9327C10.1951 13.6268 10.3522 13.3891 10.5731 13.3583C10.6494 13.3477 10.7268 13.3567 10.8036 13.3567V13.3445Z" fill="#080E1E"/>
</svg>
