<svg width="50" height="45" viewBox="0 0 50 45" fill="none" xmlns="http://www.w3.org/2000/svg">
<path d="M32.1098 13.853C31.3556 13.5409 30.997 12.6765 31.3091 11.9222C31.6211 11.1679 32.4855 10.8093 33.2399 11.1214L38.0741 13.1212L36.0216 5.04885C35.9063 4.59543 35.5832 4.22336 35.1503 4.04573L25.5611 0.110669C25.2015 -0.0368896 24.7984 -0.0368896 24.4388 0.110669L14.8496 4.04573C14.4168 4.22336 14.0935 4.59543 13.9783 5.04885L9.58609 21.8429C9.40553 22.4987 8.81061 22.9292 8.16187 22.9292C8.03209 22.9292 7.90016 22.912 7.76891 22.8759C6.98189 22.6594 6.51939 21.8457 6.7359 21.0587L7.51129 18.2408L4.87359 19.4195L0.0309203 42.9266C-0.157947 43.8435 0.542346 44.7028 1.47858 44.7028H12.5918L14.704 29.6721C14.7596 29.2767 14.9728 28.9205 15.2951 28.6848L24.1275 22.2246C24.6471 21.8445 25.353 21.8445 25.8726 22.2246L34.705 28.6848C35.0273 28.9205 35.2405 29.2766 35.2961 29.6721L37.4083 44.7028H48.5214C49.4576 44.7028 50.158 43.8436 49.9691 42.9266L45.1263 19.4195L32.1098 13.853Z" fill="black"/>
<path d="M24.9999 25.2485L17.5442 30.7018L15.5767 44.7025H34.4231L32.4556 30.7018L24.9999 25.2485Z" fill="black"/>
</svg>
