<svg width="50" height="50" viewBox="0 0 50 50" fill="none" xmlns="http://www.w3.org/2000/svg">
<path d="M39.9999 50H9.99999C7.99999 50 5.99999 49.25 4.75 47.75C3.25 46.5 2.5 44.5 2.5 42.5V12.5001C2.5 11.0001 3 9.75011 3.75 8.50012C4.5 7.25012 5.74999 6.25012 6.99999 5.75012C7.99999 5.25012 8.99999 5.50012 9.74999 6.25012L46.2499 42.75C46.9999 43.5 47.2499 44.5 46.7499 45.5C46.2499 46.75 45.2499 48 43.9999 48.75C42.7499 49.5 41.4999 50 39.9999 50ZM7.74999 11.2501C7.49999 11.7501 7.49999 12.0001 7.49999 12.5001V42.5C7.49999 43.25 7.74999 43.75 8.24999 44.25C8.74999 44.75 9.24999 45 9.99999 45H39.9999C40.4999 45 40.7499 45 41.2499 44.75L7.74999 11.2501ZM44.9999 37.5001C43.4999 37.5001 42.4999 36.5001 42.4999 35.0001V12.5001C42.4999 11.7501 42.2499 11.2501 41.7499 10.7501C41.2499 10.2501 40.7499 10.0001 39.9999 10.0001H17.5C16 10.0001 15 9.00011 15 7.50012C15 6.00012 16 5.00012 17.5 5.00012H39.9999C41.9999 5.00012 43.9999 5.75012 45.2499 7.25012C46.7499 8.50012 47.4999 10.5001 47.4999 12.5001V35.0001C47.4999 36.5001 46.4999 37.5001 44.9999 37.5001Z" fill="#080E1E"/>
<path d="M35 15C33.5 15 32.5 14 32.5 12.5V2.49999C32.5 0.999998 33.5 0 35 0C36.5 0 37.5 0.999998 37.5 2.49999V12.5C37.5 14 36.5 15 35 15Z" fill="#080E1E"/>
<path d="M15.0005 7.49998C13.5005 7.49998 12.5005 6.49999 12.5005 4.99999V2.49999C12.5005 0.999998 13.5005 0 15.0005 0C16.5005 0 17.5005 0.999998 17.5005 2.49999V4.99999C17.5005 6.49999 16.5005 7.49998 15.0005 7.49998Z" fill="#080E1E"/>
<path d="M44.9999 25H32.4999C30.9999 25 29.9999 24 29.9999 22.5C29.9999 21 30.9999 20 32.4999 20H44.9999C46.4999 20 47.4999 21 47.4999 22.5C47.4999 24 46.4999 25 44.9999 25ZM22.5 25H5C3.5 25 2.5 24 2.5 22.5C2.5 21 3.5 20 5 20H22.5C24 20 25 21 25 22.5C25 24 24 25 22.5 25Z" fill="#080E1E"/>
<path d="M25.0005 35H22.5005C21.0005 35 20.0005 34 20.0005 32.5C20.0005 31 21.0005 30 22.5005 30H25.0005C26.5005 30 27.5005 31 27.5005 32.5C27.5005 34 26.5005 35 25.0005 35Z" fill="#080E1E"/>
<path d="M25 42.5C23.5 42.5 22.5 41.5 22.5 40V32.5C22.5 31 23.5 30 25 30C26.5 30 27.5 31 27.5 32.5V40C27.5 41.5 26.5 42.5 25 42.5Z" fill="#080E1E"/>
<path d="M47.4999 49.9999C46.7499 49.9999 46.2499 49.7499 45.7499 49.2499L0.749999 4.24999C-0.25 3.24999 -0.25 1.75 0.749999 0.749999C1.75 -0.25 3.24999 -0.25 4.24999 0.749999L49.2499 45.7499C50.2499 46.7499 50.2499 48.2499 49.2499 49.2499C48.7499 49.7499 48.2499 49.9999 47.4999 49.9999Z" fill="#080E1E"/>
</svg>
