<svg width="50" height="50" viewBox="0 0 50 50" fill="none" xmlns="http://www.w3.org/2000/svg">
<path d="M27.4297 34.2656V38.1484C27.4297 38.3594 27.6016 38.5313 27.8125 38.5313C28.0234 38.5313 28.1953 38.3594 28.1953 38.1484V34.2656C28.1953 34.0547 28.0234 33.8828 27.8125 33.8828C27.6016 33.8828 27.4297 34.0547 27.4297 34.2656Z" fill="#080E1E"/>
<path d="M39.5078 22.1875C39.5078 22.3984 39.6797 22.5703 39.8906 22.5703H43.7734C43.9844 22.5703 44.1563 22.3984 44.1563 22.1875C44.1563 21.9766 43.9844 21.8047 43.7734 21.8047H39.8906C39.6797 21.8047 39.5078 21.9766 39.5078 22.1875Z" fill="#080E1E"/>
<path d="M27.8125 0C17.1719 0 8 7.67188 6.03125 18.0078H10.7578C12.6406 10.1797 19.6328 4.61719 27.8125 4.61719C37.5078 4.61719 45.3906 12.5 45.3906 22.1875C45.3906 31.8828 37.5078 39.7656 27.8125 39.7656C22.2656 39.7656 17.1172 37.1875 13.8203 32.8125C13.3516 33.2812 12.8594 33.6797 12.3672 34.0078L12.5703 34.4531C14.5469 35.8438 16.5 38.4219 17.5391 41.8672C20.6875 43.5156 24.1953 44.375 27.8125 44.375C40.0469 44.375 50 34.4219 50 22.1875C50 9.95313 40.0469 0 27.8125 0Z" fill="#080E1E"/>
<path d="M28.1953 10.1172V6.22656C28.1953 6.01563 28.0234 5.84375 27.8125 5.84375C27.6016 5.84375 27.4297 6.01563 27.4297 6.22656V10.1094C27.4297 10.3203 27.6016 10.4922 27.8125 10.4922C28.0234 10.5 28.1953 10.3281 28.1953 10.1172Z" fill="#080E1E"/>
<path d="M33.1799 9.625C33.3283 9.625 33.4767 9.53907 33.5314 9.39063L34.2736 7.59376C34.3517 7.39844 34.258 7.17188 34.0627 7.09375C33.8674 7.01563 33.6408 7.10157 33.5627 7.30469L32.8205 9.10157C32.7424 9.29688 32.8361 9.52344 33.0314 9.60157C33.0783 9.61719 33.133 9.625 33.1799 9.625Z" fill="#080E1E"/>
<path d="M37.7266 12.6641C37.8281 12.6641 37.9219 12.625 38 12.5547L39.375 11.1797C39.5234 11.0312 39.5234 10.7891 39.375 10.6328C39.2266 10.4844 38.9844 10.4844 38.8281 10.6328L37.4531 12.0078C37.3047 12.1563 37.3047 12.3984 37.4531 12.5547C37.5312 12.625 37.6328 12.6641 37.7266 12.6641Z" fill="#080E1E"/>
<path d="M40.7658 17.211C40.8127 17.211 40.8674 17.2032 40.9142 17.1797L42.7111 16.4376C42.9064 16.3594 43.0002 16.1329 42.9221 15.9376C42.8439 15.7422 42.6174 15.6485 42.4221 15.7266L40.6252 16.4688C40.4299 16.5469 40.3361 16.7735 40.4142 16.9688C40.4767 17.1251 40.6174 17.211 40.7658 17.211Z" fill="#080E1E"/>
<path d="M40.9142 27.2031C40.7189 27.125 40.4924 27.2109 40.4142 27.4141C40.3361 27.6094 40.4299 27.8359 40.6252 27.9141L42.4221 28.6563C42.4689 28.6797 42.5236 28.6875 42.5705 28.6875C42.7189 28.6875 42.8674 28.6016 42.9221 28.4531C43.0002 28.2578 42.9064 28.0313 42.7111 27.9531L40.9142 27.2031Z" fill="#080E1E"/>
<path d="M37.4531 32.375L38.8281 33.75C38.9063 33.8281 39 33.8594 39.1016 33.8594C39.2031 33.8594 39.2969 33.8203 39.375 33.75C39.5234 33.6016 39.5234 33.3594 39.375 33.2031L38 31.8281C37.8516 31.6797 37.6094 31.6797 37.4531 31.8281C37.3047 31.9844 37.3047 32.2266 37.4531 32.375Z" fill="#080E1E"/>
<path d="M33.0314 34.7891C32.8361 34.8672 32.7424 35.0938 32.8205 35.2891L33.5627 37.0859C33.6252 37.2344 33.7658 37.3203 33.9142 37.3203C33.9611 37.3203 34.0158 37.3125 34.0627 37.2891C34.258 37.2109 34.3517 36.9844 34.2736 36.7891L33.5314 34.9922C33.4533 34.7969 33.2267 34.7109 33.0314 34.7891Z" fill="#080E1E"/>
<path d="M21.5623 37.2969C21.6091 37.3204 21.6638 37.3282 21.7107 37.3282C21.8591 37.3282 22.0076 37.2422 22.0623 37.0938L22.8044 35.2969C22.8826 35.1016 22.7888 34.8751 22.5935 34.7969C22.3982 34.7188 22.1716 34.8126 22.0935 35.0079L21.3513 36.8047C21.2732 36.9844 21.3591 37.211 21.5623 37.2969Z" fill="#080E1E"/>
<path d="M17.6328 31.8359L16.2578 33.2109C16.1094 33.3594 16.1094 33.6016 16.2578 33.7578C16.3359 33.8359 16.4297 33.8672 16.5313 33.8672C16.6328 33.8672 16.7266 33.8281 16.8047 33.7578L18.1797 32.3828C18.3281 32.2344 18.3281 31.9922 18.1797 31.8359C18.0234 31.6797 17.7813 31.6797 17.6328 31.8359Z" fill="#080E1E"/>
<path d="M14.7189 17.1797C14.7658 17.2031 14.8205 17.2109 14.8674 17.2109C15.0158 17.2109 15.1642 17.125 15.2189 16.9766C15.2971 16.7813 15.2033 16.5547 15.008 16.4766L13.2111 15.7344C13.0158 15.6563 12.7892 15.7422 12.7111 15.9453C12.633 16.1406 12.7267 16.3672 12.9221 16.4453L14.7189 17.1797Z" fill="#080E1E"/>
<path d="M17.8984 12.6641C18 12.6641 18.0938 12.625 18.1719 12.5547C18.3203 12.4063 18.3203 12.1641 18.1719 12.0078L16.7969 10.6328C16.6484 10.4844 16.4063 10.4844 16.25 10.6328C16.1016 10.7812 16.1016 11.0234 16.25 11.1797L17.625 12.5547C17.7031 12.625 17.8047 12.6641 17.8984 12.6641Z" fill="#080E1E"/>
<path d="M22.0939 9.38287C22.1564 9.53131 22.2971 9.61724 22.4455 9.61724C22.4924 9.61724 22.5471 9.60943 22.5939 9.58599C22.7892 9.50787 22.883 9.28131 22.8049 9.08599L22.0627 7.28912C21.9846 7.09381 21.758 7.00006 21.5627 7.07818C21.3674 7.15631 21.2736 7.38287 21.3517 7.57818L22.0939 9.38287Z" fill="#080E1E"/>
<path d="M26.8516 13.789V20.2734C26.1484 20.625 25.6562 21.3515 25.6562 22.1953C25.6562 23.3828 26.6172 24.3515 27.8125 24.3515C28.0469 24.3515 28.2734 24.3047 28.4844 24.2344L35.3203 31.0703C35.5 31.25 35.7422 31.3515 36 31.3515C36.2578 31.3515 36.5 31.25 36.6797 31.0703C37.0547 30.6953 37.0547 30.0859 36.6797 29.7109L29.8438 22.875C29.9141 22.664 29.9609 22.4375 29.9609 22.1953C29.9609 21.3515 29.4766 20.6328 28.7734 20.2812V13.7969C28.7734 13.2734 28.3359 12.8359 27.8125 12.8359C27.2891 12.8281 26.8516 13.2578 26.8516 13.789Z" fill="#080E1E"/>
<path d="M17.7656 46.7422H17.5234C17.3984 40.8281 14.3438 36.1562 11.3203 34.5703C11.1719 34.4922 11.0781 34.3281 11.0781 34.1484C11.0781 33.9687 11.1719 33.8125 11.3203 33.7344C14.3438 32.1406 17.3984 27.4765 17.5234 21.5625H17.7656C18.3203 21.5625 18.7734 21.1094 18.7734 20.5547V19.789C18.7734 19.2344 18.3203 18.7812 17.7656 18.7812H1.00781C0.453125 18.7734 0 19.2265 0 19.789V20.5547C0 21.1094 0.453125 21.5625 1.00781 21.5625H1.24219C1.36719 27.4844 4.42969 32.1562 7.45312 33.7344C7.60156 33.8125 7.69531 33.9765 7.69531 34.1562C7.69531 34.3359 7.60156 34.5 7.45312 34.5781C4.42969 36.164 1.36719 40.8281 1.24219 46.75H1.00781C0.453125 46.7422 0 47.1953 0 47.7578V48.5234C0 49.0781 0.453125 49.5312 1.00781 49.5312H17.7656C18.3203 49.5312 18.7734 49.0781 18.7734 48.5234V47.7578C18.7734 47.1953 18.3203 46.7422 17.7656 46.7422ZM2.47656 46.7422C2.60156 41.3594 5.39062 37.039 8.03125 35.6562C8.58594 35.3672 8.9375 34.789 8.9375 34.1484C8.9375 33.5078 8.59375 32.9297 8.03906 32.6406C5.40625 31.2656 2.61719 26.9375 2.48438 21.5547H16.3047C16.1797 26.9219 13.3906 31.2578 10.7578 32.6406C10.2031 32.9297 9.85938 33.5078 9.85938 34.1484C9.85938 34.789 10.2031 35.3672 10.7578 35.6562C13.3906 37.039 16.1797 41.3672 16.3047 46.7422H2.47656Z" fill="#080E1E"/>
<path d="M14.6562 24.9531C14.6562 24.9218 14.6562 24.8828 14.6484 24.8515C12.9062 24.7265 12.3281 25.164 10.0547 26.0859C8.33594 26.7812 5.67969 25.914 4.13281 25.3593C4.34375 28.9453 7.14844 31.789 9.39844 31.789C11.7188 31.789 14.6562 28.7265 14.6562 24.9531Z" fill="#080E1E"/>
<path d="M3.5625 45.5234H15.2109C14.5391 42.7344 12.1328 40.6641 9.38281 40.6641C6.63281 40.6641 4.23438 42.7344 3.5625 45.5234Z" fill="#080E1E"/>
</svg>
