<svg width="26" height="26" viewBox="0 0 26 26" fill="none" xmlns="http://www.w3.org/2000/svg">
<path d="M12.1877 26L12.1672 25.9974C12.0702 25.9855 11.9725 25.9736 11.8755 25.9624C11.6657 25.9373 11.4486 25.9122 11.2341 25.8812C8.63939 25.5084 6.34888 24.4565 4.42726 22.7546C2.16249 20.7492 0.741066 18.2297 0.202589 15.2661C0.142538 14.9368 0.100964 14.6029 0.0607106 14.2802C0.0422335 14.1324 0.0237563 13.9839 0.00329949 13.8368L0 13.8143V12.1877L0.00263959 12.1679C0.0145178 12.0702 0.025736 11.9725 0.0376142 11.8749C0.0620304 11.665 0.0871066 11.4479 0.118782 11.2328C0.529238 8.39325 1.74345 5.92787 3.72843 3.9066C5.67183 1.92624 8.03822 0.679035 10.7603 0.199949C11.083 0.143198 11.4103 0.100964 11.7264 0.0607107C11.8722 0.0422335 12.0174 0.0237563 12.1626 0.00329949L12.185 0H13.8117C13.8117 0 13.9351 0.0158376 13.9865 0.0224365C14.0954 0.0362944 14.2037 0.0508122 14.3125 0.0620305C16.9059 0.340508 19.2182 1.30132 21.1867 2.91675C23.6805 4.96376 25.2319 7.60203 25.7994 10.7583C25.8575 11.0817 25.899 11.409 25.9393 11.7257C25.9578 11.8716 25.9762 12.0174 25.996 12.1626L25.9993 12.185V13.8117L25.9967 13.8321C25.9848 13.9291 25.9729 14.0261 25.9617 14.1238C25.9366 14.3343 25.9109 14.5514 25.8799 14.7665C25.5077 17.3758 24.4446 19.6788 22.7203 21.6123C20.7195 23.8566 18.2106 25.2642 15.2634 25.7974C14.9348 25.8568 14.6022 25.8984 14.2809 25.9393C14.1324 25.9578 13.9839 25.9769 13.8354 25.9967L13.813 26H12.1863H12.1877ZM12.9875 2.24365C7.06949 2.24365 2.24959 7.06553 2.24365 12.9921C2.23772 18.9094 7.05431 23.7379 12.9809 23.7557H13.0132C18.9298 23.7557 23.7491 18.9345 23.7557 13.0066C23.7623 7.08863 18.9457 2.26081 13.0185 2.24365H12.9875Z" fill="white"/>
<path d="M13.7719 17.9485C13.5159 17.9485 13.2717 17.8416 13.0837 17.6475C12.6917 17.243 12.7194 16.6359 13.1503 16.2043C13.7304 15.623 14.3111 15.0436 14.9096 14.4457L15.3656 13.9904H13.023C11.4775 13.9904 9.93199 13.9904 8.38651 13.9884C8.2598 13.9884 8.09417 13.9818 7.93777 13.9323C7.48574 13.7891 7.20331 13.3417 7.26666 12.8699C7.32869 12.4066 7.71473 12.0463 8.18458 12.0133C8.22153 12.0107 8.26112 12.0094 8.30996 12.0094L8.4459 12.0107H15.363L14.6866 11.3343C14.1745 10.8229 13.6446 10.2936 13.1259 9.771C12.9094 9.55257 12.7946 9.27871 12.8032 8.99825C12.8111 8.73363 12.9299 8.48617 13.1365 8.30206C13.3206 8.13775 13.5423 8.0513 13.7766 8.0513C14.0484 8.0513 14.319 8.1714 14.5374 8.38917C15.1392 8.9877 15.7391 9.5882 16.3389 10.1887L17.4561 11.3059C17.7663 11.6161 18.0771 11.9262 18.3866 12.2377C18.8617 12.7168 18.8657 13.283 18.3965 13.7535C17.179 14.9736 15.9206 16.2327 14.5486 17.602C14.3236 17.8264 14.0478 17.9498 13.7719 17.9498V17.9485Z" fill="white"/>
</svg>
