<svg width="147" height="90" viewBox="0 0 147 90" fill="none" xmlns="http://www.w3.org/2000/svg">
<path d="M91.4503 51.1399C91.0991 50.9602 90.7479 51.1399 90.5764 51.4012C87.8651 56.1297 79.7148 70.4051 75.9499 68.7391C74.8964 68.2164 74.7249 66.1992 75.3374 62.6957C76.0398 59.1922 77.5261 54.7251 79.0206 49.9966L79.4616 48.6817C80.8581 44.3861 82.6956 38.0896 83.3979 32.8302C84.2718 26.8767 83.6593 23.4631 81.4706 22.4096C80.2456 21.7971 78.8409 21.8869 77.4444 22.4994C74.9046 23.5529 72.5363 26.2642 70.7886 29.2451C72.5444 18.1221 72.5444 8.14239 70.4374 4.02639C69.8249 2.88305 69.0409 2.18889 68.1589 1.92755C67.0156 1.57639 65.8804 1.83772 64.5656 2.71155C63.4223 3.41389 62.1973 4.72872 61.0621 6.21505C60.5394 6.82755 60.1883 7.35022 60.0984 7.52172C57.1176 11.9889 54.2348 18.3834 52.3074 24.5084L53.6141 8.74672C53.7039 7.34205 52.9199 6.02722 51.6051 5.24322L49.9391 4.27955C49.6778 4.09989 49.3266 4.01822 48.9754 4.01822C48.7141 4.01822 48.3629 4.09989 48.1016 4.27955C47.5789 4.63072 47.2278 5.15339 47.2278 5.67605C47.1379 18.3752 44.1571 55.6724 39.6083 67.318C39.4286 67.8489 39.5184 68.4614 39.9594 68.8942C40.2208 69.1555 40.6618 69.3352 41.0129 69.3352C41.1844 69.3352 41.4539 69.2454 41.6254 69.1555C42.9403 68.6329 43.9938 67.9305 44.8676 67.2364C45.4801 66.6157 46.0028 65.9216 46.1824 65.0477C46.8766 62.4181 49.1633 51.8259 51.0824 35.3619C51.2621 35.1904 51.3438 35.1006 51.3438 34.9209C52.2176 26.4276 56.5949 14.9534 61.1519 8.30572C61.1519 8.30572 61.2418 8.21589 61.2418 8.12605C61.2418 8.12605 61.3234 8.04439 61.3234 7.95455L61.9359 7.17055C62.4668 6.46822 63.3406 5.68422 64.2144 5.41472C64.5656 5.33305 65.0066 5.33305 65.3578 5.58622C66.5011 6.28855 67.4566 11.1069 66.1418 22.4014C65.0883 31.1561 63.0793 40.9642 61.0621 46.8361C60.5394 48.2326 60.9804 49.7271 62.2054 50.6907L62.9078 51.3032C63.2589 51.5646 63.6019 51.6544 64.0429 51.6544H64.4839C65.0964 51.4829 65.5374 51.0419 65.7089 50.5111C67.4648 45.2599 68.8613 39.6576 69.9148 34.1369C69.9964 34.0471 70.0863 33.9654 70.0863 33.8756C71.4828 29.5799 74.5534 25.3822 77.3546 23.8959C77.7058 23.7244 77.9753 23.7244 78.1468 23.8061C78.7593 24.0674 79.1104 25.1209 79.2003 26.6072C79.4616 29.6779 76.7421 38.5142 74.1206 46.8361C72.1933 52.7896 69.2124 63.2102 70.6171 66.9751C71.6706 69.6864 74.0308 70.2091 75.7866 70.2091C76.4889 70.2091 77.0116 70.1274 77.3628 70.1274C77.4526 70.0376 77.6241 70.0376 77.6241 69.9559C80.8663 68.9922 85.1538 63.3899 91.7279 52.0872C91.8994 51.7361 91.7279 51.3032 91.4666 51.1236L91.4503 51.1399Z" fill="#00C2AF"/>
<path d="M138.294 50.9602C138.294 51.0501 135.224 53.9411 132.692 53.3286C132.251 53.2469 131.908 53.1571 131.557 52.9774C129.891 52.0137 128.666 50.2661 127.702 47.9876C129.63 39.1431 130.765 29.3349 130.503 22.8587C130.332 17.6076 129.36 14.8881 127.433 14.6267C125.244 14.1857 123.496 16.7256 122.525 21.7154C121.389 27.4974 121.561 35.1169 122.876 41.2419C123.488 44.0431 124.452 47.1137 126.028 49.6536C124.975 54.1126 123.929 57.3547 122.957 59.5434V59.6251C122.606 60.2457 121.904 61.1114 121.471 61.0297C118.85 60.5887 115.779 48.9431 115.166 32.2177C115.166 31.6052 114.725 31.0744 114.203 30.8131C113.672 30.5517 112.97 30.6416 112.537 30.9927L111.663 31.6869C110.258 32.8302 109.474 34.5779 109.646 36.5052L109.997 40.0087C109.646 43.2509 109.123 47.5384 108.331 51.9157C106.232 63.3001 104.043 66.8852 102.639 67.9387C102.557 67.9387 102.288 67.8571 102.026 67.5876C98.0899 64.1739 94.5864 37.8119 97.9102 2.79322C97.9102 2.09089 97.6489 1.56006 97.1262 1.21706C96.6035 0.86589 95.991 0.776056 95.3704 1.13539L93.3614 2.18889C92.0465 2.97289 91.0829 4.37756 90.993 5.86389C89.768 24.8677 89.6782 59.2821 97.559 67.6856C98.784 69.0004 100.099 69.6129 101.585 69.6129C102.198 69.6129 102.729 69.4414 103.251 69.0902C103.251 69.0902 103.341 69.0902 103.341 69.0004C105.791 67.2527 107.808 61.6422 109.556 52.1934C109.997 49.6536 110.43 47.2036 110.699 44.9251C111.924 52.5446 114.023 61.6504 117.616 64.1004C118.237 64.6312 118.931 64.8027 119.634 64.8027C119.895 64.8027 120.246 64.8027 120.507 64.7129C121.822 64.3617 122.957 62.6141 124.101 60.2539V60.1641C125.326 57.4527 126.289 54.0309 126.992 51.0582C128.396 52.8141 130.144 54.1207 132.333 54.6516C135.657 55.3539 139.078 52.1117 139.25 51.9402C139.511 51.6789 139.511 51.2379 139.25 51.0664C138.989 50.8051 138.556 50.8051 138.286 50.9766L138.294 50.9602ZM126.91 45.6192C125.424 40.3599 125.244 33.9736 125.154 30.8131C124.983 24.3369 126.118 16.7174 127.433 16.0151C127.433 16.0151 127.523 15.9334 127.604 16.0151C128.135 16.4561 129.091 17.8607 129.27 22.9322C129.442 28.7061 128.568 37.3791 126.902 45.6111L126.91 45.6192Z" fill="#00C2AF"/>
<mask id="mask0_264_923" style="mask-type:luminance" maskUnits="userSpaceOnUse" x="0" y="0" width="56" height="32">
<path d="M55.2638 0.955688H0V31.989H55.2638V0.955688Z" fill="white"/>
</mask>
<g mask="url(#mask0_264_923)">
<mask id="mask1_264_923" style="mask-type:luminance" maskUnits="userSpaceOnUse" x="-1" y="0" width="57" height="33">
<path d="M43.855 0.955688H11.1638C4.84935 0.955688 -0.269531 6.07457 -0.269531 12.389V20.7762C-0.269531 27.0906 4.84935 32.2095 11.1638 32.2095H43.855C50.1694 32.2095 55.2883 27.0906 55.2883 20.7762V12.389C55.2883 6.07457 50.1694 0.955688 43.855 0.955688Z" fill="white"/>
</mask>
<g mask="url(#mask1_264_923)">
<path d="M51.7195 10.5678C53.2303 11.1721 55.272 11.1721 55.272 12.8381C55.272 16.7663 39.004 19.1183 38.3996 19.1183L33.026 30.8456C32.6503 31.7521 32.1195 31.9808 31.5151 32.0543L29.7675 32.2013V24.0265L26.362 21.0048C25.9863 21.0048 23.7895 21.3805 19.2488 21.3805C13.9568 21.3805 12.5195 21.1518 12.1356 21.1518L11.5313 23.7243C11.4578 24.1816 10.1675 24.4021 9.93881 24.1L7.21931 20.4658C6.68848 20.4658 5.32465 20.3188 5.32465 19.8615C5.32465 19.2571 5.55331 19.0285 5.85548 18.8815L0.114311 13.516C-0.261356 13.1403 1.09431 12.3808 2.30298 12.9851L7.90531 15.6311L7.52965 11.2456L8.81181 11.017C9.26915 10.9435 10.2573 11.6213 10.5595 11.9235L14.4958 16.162L21.3068 14.8716L18.1218 11.6213L3.21764 2.24597L4.49981 1.26597C4.49981 1.26597 4.81015 0.963806 5.86365 0.963806L35.4433 12.4625L44.6716 10.723C45.0473 10.6495 46.6398 9.73481 48.5263 9.73481C50.5761 9.73481 50.5762 10.1105 51.7113 10.5678" fill="#FFB000"/>
</g>
</g>
<mask id="mask2_264_923" style="mask-type:luminance" maskUnits="userSpaceOnUse" x="133" y="30" width="14" height="21">
<path d="M147 30.2169H133.492V50.6336H147V30.2169Z" fill="white"/>
</mask>
<g mask="url(#mask2_264_923)">
<path d="M146.992 36.9873C146.992 33.2552 143.97 30.2335 140.238 30.2335C136.506 30.2335 133.484 33.2552 133.484 36.9873C133.484 37.0527 133.492 37.118 133.492 37.1833C133.492 37.3303 133.5 37.4937 133.525 37.6488C133.525 37.6815 133.525 37.706 133.533 37.7387C133.549 37.8775 133.574 38.0163 133.598 38.1633C133.623 38.2695 133.639 38.3675 133.664 38.4737C134.693 43.047 140.238 50.936 140.238 50.936C140.238 50.936 145.22 43.7167 146.624 39.1678C146.739 38.833 146.82 38.4982 146.877 38.1552C146.943 37.804 146.992 37.4855 146.992 37.1915C146.992 37.167 146.984 37.1507 146.984 37.1262C146.984 37.0772 146.992 37.0363 146.992 36.9873ZM140.238 40.5153C138.262 40.5153 136.661 38.9147 136.661 36.9383C136.661 34.962 138.262 33.3613 140.238 33.3613C142.214 33.3613 143.815 34.962 143.815 36.9383C143.815 38.9147 142.214 40.5153 140.238 40.5153Z" fill="#FFB000"/>
</g>
<path d="M56.3499 82.5816V89.6294H55.1902V84.7947L53.0424 89.6294H52.242L50.0779 84.7947V89.6294H48.9182V82.5816H50.1595L52.6259 88.1104L55.0922 82.5816H56.3335H56.3499Z" fill="#231F20"/>
<path d="M64.2308 88.1839H61.2908L60.7763 89.6294H59.5676L62.0993 82.5652H63.4305L65.9621 89.6294H64.7371L64.2226 88.1839H64.2308ZM63.9041 87.2447L62.7608 83.9617L61.6011 87.2447H63.896H63.9041Z" fill="#231F20"/>
<path d="M74.9699 89.6294H73.8102L70.3394 84.37V89.6294H69.1797V82.5652H70.3394L73.8102 87.8245V82.5652H74.9699V89.6294Z" fill="#231F20"/>
<path d="M80.9154 82.5816C81.6668 82.5816 82.3201 82.7286 82.8918 83.0062C83.4553 83.2921 83.8963 83.7004 84.1984 84.2476C84.5088 84.7866 84.6558 85.4072 84.6558 86.1177C84.6558 86.8282 84.5006 87.4734 84.1984 88.0042C83.8881 88.5269 83.4553 88.9352 82.8918 89.2129C82.3201 89.4824 81.6668 89.6212 80.9154 89.6212H78.6206V82.5734H80.9154V82.5816ZM80.9154 88.6902C81.7403 88.6902 82.3691 88.4697 82.8019 88.0287C83.2429 87.5796 83.4634 86.9426 83.4634 86.1259C83.4634 85.3092 83.2429 84.6722 82.8019 84.2231C82.3691 83.7576 81.7403 83.5289 80.9154 83.5289H79.7721V88.6984H80.9154V88.6902Z" fill="#231F20"/>
<path d="M89.0901 82.5816V89.6294H87.9304V82.5816H89.0901Z" fill="#231F20"/>
<path d="M96.3911 89.6294L94.7578 86.8037H93.8921V89.6294H92.7324V82.5816H95.1661C95.6969 82.5816 96.1543 82.6796 96.5299 82.8674C96.9138 83.0471 97.1996 83.3002 97.3793 83.6187C97.5589 83.9372 97.6488 84.2966 97.6488 84.6886C97.6488 85.1459 97.5099 85.5542 97.2404 85.9299C96.9791 86.3056 96.5708 86.5587 96.0154 86.6976L97.7713 89.6212H96.3911V89.6294ZM93.8921 85.8809H95.1661C95.5989 85.8809 95.9174 85.7747 96.1379 85.5542C96.3666 85.3419 96.4809 85.0561 96.4809 84.6886C96.4809 84.3211 96.3666 84.0434 96.1379 83.8392C95.9174 83.6269 95.5989 83.5126 95.1661 83.5126H93.8921V85.8809Z" fill="#231F20"/>
<path d="M110.438 82.5816L108.347 89.6294H107.041L105.562 84.3047L103.994 89.6294L102.704 89.6457L100.695 82.5816H101.92L103.382 88.3146L104.966 82.5816H106.273L107.735 88.2819L109.197 82.5816H110.438Z" fill="#231F20"/>
<path d="M114.676 82.5816V89.6294H113.517V82.5816H114.676Z" fill="#231F20"/>
<path d="M122.198 89.6294L119.478 86.4852V89.6294H118.319V82.5816H119.478V85.7992L122.214 82.5816H123.66L120.597 86.1014L123.709 89.6212H122.198V89.6294Z" fill="#231F20"/>
<path d="M128.021 82.5816V89.6294H126.861V82.5816H128.021Z" fill="#231F20"/>
</svg>
