<svg width="19" height="27" viewBox="0 0 19 27" fill="none" xmlns="http://www.w3.org/2000/svg">
<path d="M4.79292 1.2674C7.75808 -0.450158 11.4028 -0.420138 14.3401 1.34603C17.2486 3.14818 19.0162 6.36447 18.9999 9.82431C18.9321 13.2614 17.0366 16.4924 14.6673 18.99C13.2998 20.4381 11.77 21.7185 10.1091 22.8052C9.93809 22.9038 9.75073 22.9698 9.5563 23C9.36917 22.9921 9.18693 22.9369 9.02602 22.8396C6.49044 21.2068 4.26595 19.1225 2.45959 16.6871C0.948083 14.6542 0.0893468 12.1981 0 9.65245L0.00676701 9.28211C0.13018 5.95923 1.93365 2.92361 4.79292 1.2674ZM10.7313 6.81175C9.52588 6.30096 8.13613 6.57847 7.21093 7.51471C6.28573 8.45094 6.00759 9.86122 6.50636 11.0871C7.00514 12.3129 8.18246 13.1125 9.48861 13.1125C10.3443 13.1186 11.1668 12.7769 11.773 12.1636C12.3791 11.5502 12.7184 10.7162 12.7154 9.84722C12.72 8.52087 11.9367 7.32254 10.7313 6.81175Z" fill="white"/>
<path d="M9.5 27C13.0899 27 16 26.3284 16 25.5C16 24.6716 13.0899 24 9.5 24C5.91015 24 3 24.6716 3 25.5C3 26.3284 5.91015 27 9.5 27Z" fill="white"/>
</svg>
