<svg width="22" height="21" viewBox="0 0 22 21" fill="none" xmlns="http://www.w3.org/2000/svg">
<path d="M13.1219 3.8404C12.5982 3.74365 12.1173 4.07786 12.0176 4.58905C11.9179 5.10025 12.2531 5.59936 12.7626 5.6994C14.2964 5.99842 15.4807 7.18572 15.7809 8.7248V8.7259C15.8664 9.16894 16.2564 9.49105 16.7056 9.49105C16.7659 9.49105 16.8261 9.48555 16.8875 9.47456C17.3969 9.37232 17.7322 8.87432 17.6325 8.36202C17.1844 6.06328 15.415 4.28783 13.1219 3.8404Z" fill="white"/>
<path d="M13.0568 0.00872356C12.8114 -0.0264556 12.5648 0.0461014 12.3687 0.202209C12.1671 0.360515 12.0412 0.58918 12.0138 0.845328C11.9557 1.36312 12.3293 1.83144 12.8464 1.88971C16.4126 2.28767 19.1844 5.06573 19.5854 8.64301C19.6391 9.12233 20.0412 9.48401 20.5211 9.48401C20.5572 9.48401 20.5923 9.48182 20.6284 9.47742C20.8793 9.44993 21.1028 9.32571 21.2606 9.12782C21.4173 8.92994 21.4885 8.68369 21.46 8.43194C20.9604 3.96858 17.506 0.50453 13.0568 0.00872356Z" fill="white"/>
<path fill-rule="evenodd" clip-rule="evenodd" d="M9.93585 10.9707C14.3243 15.3578 15.3198 10.2824 18.1139 13.0745C20.8077 15.7675 22.3559 16.3071 18.943 19.7191C18.5154 20.0626 15.7993 24.196 6.25365 14.653C-3.29314 5.10888 0.837822 2.38991 1.18148 1.96253C4.60269 -1.45891 5.13293 0.0983305 7.82668 2.79133C10.6208 5.58467 5.54745 6.58348 9.93585 10.9707Z" fill="white"/>
</svg>
