<svg width="24" height="24" viewBox="0 0 24 24" fill="none" xmlns="http://www.w3.org/2000/svg">
<path d="M23.0157 14.3671C24.7359 6.65563 17.9736 -0.343991 10.0249 0.990682C5.72426 -1.67866 0 1.34659 0 6.47767C0 7.66405 0.326253 8.79111 0.889782 9.74021C-0.682166 17.4813 6.10984 24.392 14.0586 22.9386C19.6642 25.9046 25.8333 20.0024 23.0157 14.3671ZM15.4822 19.0236C13.406 19.8837 9.96556 19.8837 7.8894 18.7863C4.92346 17.2144 4.41925 13.6552 6.96996 13.6552C8.89782 13.6552 8.27497 15.9094 10.2325 16.7991C11.1223 17.2144 13.0501 17.244 14.1475 16.5026C15.2449 15.7611 15.156 14.6043 14.5628 14.0705C12.9908 12.6172 8.45293 13.1807 6.37677 10.63C5.48699 9.53259 5.30903 7.57507 6.40643 6.15142C8.33429 3.66003 13.9992 3.51173 16.4313 5.38027C18.6854 7.13018 18.0626 9.41395 16.2534 9.41395C14.0882 9.41395 15.2153 6.56665 11.6858 6.56665C9.1351 6.56665 8.12668 8.37587 9.9359 9.26566C12.368 10.5114 18.5668 10.0961 18.5668 14.8416C18.5668 16.7991 17.3507 18.2525 15.4822 19.0236Z" fill="white"/>
</svg>
