<svg width="50" height="40" viewBox="0 0 50 40" fill="none" xmlns="http://www.w3.org/2000/svg">
<path d="M41.9409 11.8093C42.4576 11.6617 42.8266 11.5141 43.2695 11.3664C43.4909 11.6617 43.7123 11.9569 43.9338 12.3998C43.5647 12.695 43.1957 13.1378 42.7528 13.3593C41.9409 13.6545 41.6457 14.1712 41.7195 15.0569C41.7195 15.4259 41.7195 15.8687 41.6457 16.3116C41.9409 16.2378 42.1624 16.0902 42.3838 16.0902C42.679 16.0902 42.9743 16.3116 43.1219 16.533C43.2695 16.6806 43.1957 17.1235 43.1219 17.2711C42.9743 17.4925 42.7528 17.7139 42.4576 17.7878C41.5719 18.083 41.4243 18.7473 41.4243 19.5591C41.4243 20.1496 41.4243 20.7401 41.2767 21.3305C41.129 22.1424 40.6124 22.5853 39.8743 22.7329C39.1362 22.8805 38.9886 22.29 38.9148 21.7734C38.2505 18.9687 37.5124 16.0902 36.8482 13.2855C36.7744 12.9902 36.7006 12.6212 36.5529 12.2521C36.3315 12.326 36.1101 12.3998 35.9625 12.5474C33.822 13.6545 31.6816 14.7616 29.4674 15.7949C29.0245 16.0164 28.8031 16.3116 28.7293 16.7544C28.5817 17.6401 28.5079 18.5258 28.2864 19.4115C28.2864 19.633 27.9912 20.002 27.8436 20.002C27.5484 20.002 27.1793 19.7806 27.1055 19.5591C26.4412 17.0497 24.9651 15.1307 23.1937 13.4331C23.1937 13.4331 23.1937 13.3593 23.1199 13.2855C23.2675 12.6212 23.6365 12.4736 24.3008 12.695C25.2603 13.064 26.3674 13.6545 27.3269 13.4331C28.2126 13.2855 29.0245 12.2521 29.8364 11.6617C31.2388 10.6284 32.7149 9.52124 34.1911 8.41412C33.453 7.74985 32.7149 7.15939 31.9768 6.49511C30.2793 5.09276 28.5817 3.6904 26.8841 2.21424C26.4412 1.8452 25.8508 1.47616 26.146 0.738081C26.3674 0.221424 27.4745 -0.147616 28.1388 0.0738081C28.8769 0.36904 29.615 0.664273 30.3531 0.959505C30.7959 1.18093 31.0911 1.18093 31.534 0.811889C31.9768 0.516657 32.4935 0.295232 33.084 0C33.3054 0.36904 33.5268 0.664273 33.7482 1.03331C33.5268 1.32855 33.2316 1.62378 32.9363 1.91901C33.6006 2.21424 34.2649 2.50948 34.9292 2.7309C35.0768 2.7309 35.372 2.7309 35.5196 2.58328C35.8887 2.36186 36.2577 2.14043 36.6268 1.91901C37.0696 1.69759 37.4386 1.54997 37.7339 2.14043C38.1029 2.65709 37.7339 2.87852 37.5125 3.17375C37.3648 3.32136 37.291 3.39517 37.0696 3.6166C38.0291 3.98564 38.9148 4.42849 39.8005 4.72372C40.0219 4.72372 40.3172 4.64991 40.5386 4.50229C42.5314 3.46898 44.5242 2.36186 46.5908 1.32855C47.2551 0.959505 48.067 0.811889 48.8789 0.738081C49.7646 0.738081 50.2813 1.40235 49.8384 2.21424C49.4694 2.87852 48.9527 3.46898 48.436 3.98564C46.7385 5.31418 44.8933 6.56892 43.1219 7.82366C42.5314 8.26651 42.1624 8.63555 42.2362 9.37363C42.2362 10.0379 42.2362 10.7022 42.1624 11.5141L41.9409 11.8093Z" fill="#080E1E"/>
<path d="M31.2381 9.22636C30.7214 9.66921 30.2048 9.96444 29.6143 10.4073C26.0715 6.79069 21.7907 4.94549 16.7717 5.31453C13.0075 5.53596 9.68613 7.01212 6.95523 9.66921C1.27201 15.131 0.460117 23.6189 4.8886 30.0402C9.24328 36.3877 17.5098 38.602 24.4477 35.502C30.7952 32.6235 35.888 24.7261 32.7881 15.5739C33.3785 15.2786 33.8952 14.9834 34.4856 14.6882C37.1427 20.2976 36.1832 30.2617 27.9905 35.8711C19.8716 41.4805 8.80043 39.4139 3.19102 31.295C-2.4184 23.1761 -0.425581 12.0311 7.54569 6.42165C15.6646 0.664622 26.1453 2.95267 31.2381 9.15255V9.22636Z" fill="#080E1E"/>
<path d="M18.5442 19.3358C20.0942 18.4501 21.4965 17.5645 22.9727 16.7526C23.9322 16.2359 24.375 16.3835 24.8179 17.2692C25.1131 17.8597 24.9655 18.3025 24.375 18.5978C22.8251 19.4835 21.3489 20.3692 19.7251 21.2549C19.9465 21.6239 20.0942 21.9929 20.2418 22.2882C20.6846 22.9524 20.2418 23.3215 19.7989 23.6905C19.2085 24.0596 18.618 24.2072 18.3228 23.4691C17.9537 22.6572 17.5109 22.4358 16.699 22.9524C15.9609 23.4691 15.5919 22.8048 15.2966 22.2144C15.0014 21.6239 15.0752 21.181 15.5919 20.9596C16.5514 20.5168 16.3299 20.0001 15.8871 19.3358C14.9276 17.7859 14.0419 16.1621 13.0824 14.5383C12.5657 13.6526 12.7133 13.2836 13.5252 12.8407C14.2633 12.4717 14.6324 12.5455 15.0752 13.3574C16.1823 15.2764 17.2894 17.1954 18.4704 19.1882L18.5442 19.3358Z" fill="#080E1E"/>
<path d="M19.1341 33.9497C19.1341 33.9497 19.1341 34.3926 19.1341 34.614C19.1341 35.3521 18.765 35.7211 18.027 35.7211C17.1413 35.7211 16.7722 35.4997 16.7722 34.614C16.7722 34.245 16.7722 33.8021 16.7722 33.4331C16.7722 32.3998 17.0674 32.1783 18.1008 32.1783C18.8388 32.1783 19.1341 32.4736 19.1341 33.2117C19.1341 33.4331 19.1341 33.7283 19.1341 33.9497Z" fill="#080E1E"/>
<path d="M5.03938 22.2919C5.03938 22.2919 4.52273 22.2919 4.3013 22.2919C3.56322 22.2919 3.3418 21.8491 3.3418 21.2586C3.3418 20.5943 3.3418 20.0039 4.22749 19.9301C4.67034 19.9301 5.11319 19.9301 5.48223 19.9301C6.66316 19.9301 6.95839 20.2253 6.81078 21.4062C6.81078 21.9967 6.44174 22.2181 5.92508 22.2181C5.62985 22.2181 5.33462 22.2181 4.96558 22.2181L5.03938 22.2919Z" fill="#080E1E"/>
<path d="M27.3997 27.4576C27.5473 26.0552 28.3592 25.6124 29.3925 26.2029C29.6877 26.3505 29.9091 26.4981 30.2044 26.6457C31.1639 27.2362 31.3115 27.8266 30.5734 28.6385C30.5734 28.6385 30.4996 28.7861 30.4258 28.7861C29.6139 29.3028 29.0972 28.4909 28.433 28.1957C27.9901 27.9743 27.6949 27.5314 27.4735 27.31L27.3997 27.4576Z" fill="#080E1E"/>
<path d="M11.3847 11.5853C11.3847 11.5853 11.0157 11.3639 10.7943 11.1424C10.4991 10.6996 10.2038 10.2567 9.98239 9.74008C9.53955 9.002 9.98239 8.63296 10.5729 8.26392C11.2371 7.89488 11.68 7.96869 12.049 8.63296C12.2704 9.002 12.4919 9.44485 12.7133 9.81389C13.2299 10.6996 12.5657 11.6591 11.3847 11.6591V11.5853Z" fill="#080E1E"/>
<path d="M24.5232 34.0249C24.5232 34.0249 23.9327 33.6559 23.7851 33.4344C23.5637 33.0654 23.3423 32.6964 23.1209 32.3273C22.5304 31.3678 22.7518 30.7774 23.8589 30.4083C24.4494 30.1869 24.8184 30.4083 25.0399 30.925C25.3351 31.7369 26.4422 32.3273 25.7041 33.2868C25.4827 33.5821 24.9661 33.7297 24.5232 34.0249Z" fill="#080E1E"/>
<path d="M11.6054 30.4816C12.7125 30.4816 13.303 31.5149 12.7863 32.4006C12.6387 32.6958 12.4173 32.991 12.2697 33.2863C11.6792 34.3196 11.0887 34.3934 10.2768 33.6553C10.203 33.6553 10.0554 33.5077 10.0554 33.4339C10.0554 33.0649 10.0554 32.5482 10.2768 32.253C10.6459 31.5887 10.7935 30.703 11.6792 30.5554L11.6054 30.4816Z" fill="#080E1E"/>
<path d="M5.9208 12.6205C6.8803 13.2848 7.69219 13.7277 8.35647 14.3181C8.50408 14.4657 8.20885 15.2776 7.98743 15.7205C7.83981 15.9419 7.24934 16.0157 6.95411 15.9419C6.36365 15.7205 5.84699 15.4253 5.33033 14.9824C5.10891 14.761 4.88749 14.2443 5.0351 14.0229C5.18272 13.58 5.55176 13.211 5.99461 12.6944L5.9208 12.6205Z" fill="#080E1E"/>
<path d="M6.06945 29.153C5.70041 28.7101 5.33137 28.3411 5.18375 27.8982C5.10994 27.603 5.25756 27.1601 5.47898 26.9387C5.77422 26.5697 6.29087 26.4221 6.65991 26.1268C7.61942 25.6102 7.98846 25.7578 8.50511 26.6435C8.80035 27.1601 8.72654 27.603 8.20988 27.972C7.61942 28.3411 6.95514 28.7101 6.14326 29.153H6.06945Z" fill="#080E1E"/>
<path d="M30.8699 19.8531C30.8699 19.8531 31.3127 19.8531 31.5341 19.8531C32.2722 19.8531 32.5674 20.2222 32.5674 20.9603C32.5674 21.6984 32.346 22.1412 31.5341 22.215C31.0175 22.215 30.5008 22.215 29.9842 22.215C29.3937 22.215 29.0247 21.9198 29.0247 21.2555C29.0247 20.4436 29.3937 19.8531 30.058 19.8531C30.2794 19.8531 30.5746 19.8531 30.7961 19.8531H30.8699Z" fill="#080E1E"/>
<path d="M24.5222 11.5878C23.046 11.2926 22.3817 10.776 23.3412 9.52122C23.4151 9.3736 23.4889 9.22598 23.6365 9.07837C24.2269 7.97125 24.596 7.89744 25.4079 8.34029C26.2936 8.85694 26.2936 9.15218 25.6293 10.2593C25.4817 10.5545 25.2603 10.9236 25.0388 11.2188C24.8912 11.4402 24.596 11.514 24.5222 11.5878Z" fill="#080E1E"/>
<path d="M16.8452 8.11952C16.8452 8.11952 16.8452 7.67667 16.8452 7.45525C16.8452 6.64336 17.2143 6.42194 17.9523 6.42194C18.6904 6.42194 19.1333 6.64336 19.2071 7.45525C19.2071 7.82429 19.2071 8.19333 19.2071 8.56237C19.2071 9.7433 18.9857 9.96473 18.0261 9.96473C17.0666 9.96473 16.8452 9.7433 16.8452 8.56237C16.8452 8.41475 16.8452 8.26714 16.8452 8.11952Z" fill="#080E1E"/>
</svg>
