<svg width="42" height="50" viewBox="0 0 42 50" fill="none" xmlns="http://www.w3.org/2000/svg">
<path d="M20.9688 0C15.4092 0.00661722 10.0792 2.21823 6.14818 6.14965C2.21715 10.0811 0.00606488 15.4112 0 20.9708C0 31.9583 17.0125 46.6562 18.9583 48.2979L20.9729 50L22.9875 48.2979C24.9292 46.6562 41.9458 31.9583 41.9458 20.9708C41.9398 15.4098 39.7275 10.0784 35.7947 6.14671C31.8619 2.21505 26.5298 0.00441152 20.9688 0ZM20.9688 41.7562C14.5833 35.9396 6.24583 26.4896 6.24583 20.9708C6.24583 17.0661 7.79699 13.3212 10.5581 10.5602C13.3192 7.79908 17.064 6.24792 20.9688 6.24792C24.8735 6.24792 28.6183 7.79908 31.3794 10.5602C34.1405 13.3212 35.6917 17.0661 35.6917 20.9708C35.6917 26.4792 27.3521 35.9333 20.9688 41.7562Z" fill="#080E1E"/>
<path d="M20.9654 27.0388C24.4138 27.0388 27.2092 24.2434 27.2092 20.7951C27.2092 17.3467 24.4138 14.5513 20.9654 14.5513C17.5171 14.5513 14.7217 17.3467 14.7217 20.7951C14.7217 24.2434 17.5171 27.0388 20.9654 27.0388Z" fill="#080E1E"/>
</svg>
