<svg width="51" height="50" viewBox="0 0 51 50" fill="none" xmlns="http://www.w3.org/2000/svg">
<path d="M25.0025 0C38.782 0 50.3962 11.4173 50.0025 25C49.6088 40.5512 38.3883 50 25.0025 50C11.223 50 0.199358 40.1575 0.002508 25C-0.194342 11.2205 11.223 0 25.0025 0ZM25.0025 4.52756C14.1757 4.52756 4.72692 12.2047 4.33322 25.1968C4.13637 36.4173 13.5852 45.6693 24.8057 45.6693C36.0261 45.6693 45.6718 36.4173 45.4749 25.1968C45.2781 12.2047 35.8293 4.72441 25.0025 4.52756Z" fill="#080E1E"/>
<path d="M24.9986 43.8968C15.1561 43.8968 6.4947 37.007 6.29785 24.9991C6.29785 14.7629 14.7624 6.29834 25.1955 6.29834C35.4317 6.29834 44.0931 14.7629 43.8963 24.9991C43.6994 37.007 34.8412 43.6999 25.1955 43.8968H24.9986ZM29.5262 31.2983C29.5262 31.2983 30.1167 31.2983 30.3136 31.2983C31.101 31.2983 31.2978 30.9046 31.2978 30.3141C31.2978 29.133 31.2978 27.9519 31.2978 26.7708C31.2978 25.5897 30.7073 24.8023 29.723 24.0149C29.5262 24.0149 29.3293 23.6212 29.3293 23.4243C29.1325 22.8338 28.9356 22.0464 28.5419 21.4558C27.9514 19.881 26.3766 18.6999 24.8018 18.6999C23.0301 18.6999 21.2585 18.6999 19.6837 18.6999C17.912 18.6999 16.5341 19.6842 15.9435 21.4558C15.7467 22.0464 15.5498 22.8338 15.1561 23.4243C15.1561 23.6212 14.9593 23.818 14.7624 24.0149C13.7782 24.6054 13.1876 25.5897 13.1876 26.7708C13.1876 27.9519 13.1876 29.133 13.1876 30.3141C13.1876 31.1015 13.5813 31.2983 14.1719 31.2983C14.3687 31.2983 14.7624 31.2983 14.9593 31.2983C14.9593 32.6763 15.1561 33.07 15.7467 33.07C16.9278 33.07 16.5341 32.0857 16.7309 31.2983H27.5577C27.5577 32.6763 27.9514 33.07 28.5419 33.07C29.1325 33.07 29.3293 32.6763 29.5262 31.2983ZM22.6364 11.4164C22.6364 11.4164 22.6364 11.6133 22.6364 11.8102C22.6364 12.9913 22.6364 14.1724 22.6364 15.3535C22.6364 16.1409 23.0301 16.3377 23.8175 16.3377C24.4081 16.3377 24.9986 16.3377 25.5892 16.3377C30.9041 16.9283 34.4475 20.2747 35.038 25.5897C35.6286 29.7235 33.4632 34.4479 28.9356 36.4164C27.164 37.2038 25.1955 37.4007 23.4238 37.4007C22.4396 37.4007 22.2427 37.5976 22.2427 38.5818C22.2427 39.3692 22.2427 40.1566 22.2427 40.944C22.2427 41.7314 22.6364 42.1251 23.227 42.1251C23.8175 42.1251 24.0144 41.7314 24.0144 40.944C24.0144 40.3535 24.0144 39.7629 24.0144 39.1724C31.8884 39.1724 36.6128 33.6605 37.0065 27.3613C37.0065 24.4086 36.416 21.6527 34.4475 19.2905C31.8884 16.1409 28.5419 14.7629 24.6049 14.5661V11.4164C24.6049 11.4164 24.6049 11.4164 24.8018 11.4164C25.3923 11.8102 25.786 11.8102 26.1797 11.4164C26.5734 11.0227 26.3766 10.629 26.1797 10.0385C25.5892 9.44795 24.9986 8.85739 24.6049 8.46369C24.2112 8.06999 23.8175 8.06999 23.4238 8.46369C22.8333 9.05425 22.0459 9.6448 21.4553 10.4322C21.4553 10.629 21.4553 11.2196 21.4553 11.4164C21.4553 11.6133 22.0459 11.8102 22.2427 11.8102C22.2427 11.8102 22.6364 11.8102 23.0301 11.4164H22.6364Z" fill="#080E1E"/>
<path d="M29.7242 29.3306H14.9604C14.9604 28.3464 14.9604 27.1653 14.9604 26.181C14.9604 25.5905 15.551 25.1968 16.3384 25.1968C18.3069 25.1968 20.4723 25.1968 22.4408 25.1968C24.4093 25.1968 26.3778 25.1968 28.1494 25.1968C29.1337 25.1968 29.5274 25.5905 29.7242 26.5747C29.7242 27.3621 29.7242 28.3464 29.7242 29.1338V29.3306Z" fill="#080E1E"/>
<path d="M27.5572 23.4247H16.9272C16.9272 23.4247 17.5178 21.8499 17.9115 21.2593C18.3052 20.6688 18.8957 20.4719 19.4863 20.4719C21.258 20.4719 23.0296 20.4719 24.6044 20.4719C25.5887 20.4719 26.3761 21.0625 26.7698 22.0467C26.7698 22.4404 27.1635 23.031 27.3603 23.6215L27.5572 23.4247Z" fill="#080E1E"/>
</svg>
