<svg width="50" height="36" viewBox="0 0 50 36" fill="none" xmlns="http://www.w3.org/2000/svg">
<path d="M50 11.795V33.6646C49.759 34.0971 49.5873 34.5858 49.2637 34.9457C48.4912 35.8107 47.4314 35.9857 46.3253 35.9857C32.1087 35.9857 17.8888 35.9856 3.67222 35.9823C3.33216 35.9823 2.9888 35.9658 2.65203 35.913C1.36112 35.7116 -0.117992 34.7773 0.00746802 32.8987C0.0371822 32.4464 0.0107696 31.9874 0.0107696 31.5318C0.0107696 25.2027 0.0173728 18.8769 0.00416644 12.5477C0.00416644 11.6563 0.291404 10.9201 0.978133 10.3621C1.7474 9.73479 2.66524 9.56641 3.6326 9.56641C17.8822 9.56641 32.1351 9.56641 46.3848 9.56641C48.0455 9.56641 49.376 10.1112 50 11.795ZM33.2643 22.185C32.4653 22.9444 31.6564 23.5552 31.0489 24.3278C30.2797 25.3017 29.4345 25.6088 28.302 25.1301C27.6417 24.8494 27.1432 25.0376 26.704 25.5923C26.463 25.896 26.4135 26.0908 26.704 26.3714C27.2587 26.8997 27.7903 27.4478 28.3317 27.9892C29.2628 28.9203 30.1872 29.8612 31.1381 30.7758C31.2635 30.8979 31.5739 30.9937 31.6993 30.9243C32.3861 30.5446 32.5577 30.0989 32.3927 29.3363C32.3762 29.257 32.3663 29.1745 32.3332 29.0986C31.8644 27.9727 32.2012 27.1407 33.152 26.3979C33.9345 25.7871 34.5882 25.0112 35.3245 24.2849C35.4532 24.5061 35.5523 24.6744 35.6447 24.8428C36.6781 26.7214 37.7115 28.6 38.7482 30.4786C39.0652 31.0498 39.217 31.0696 39.6859 30.6074C39.9632 30.3333 40.2207 30.0329 40.5212 29.7853C40.7919 29.5608 40.7985 29.333 40.7027 29.0226C39.9863 26.6785 39.2996 24.3245 38.5699 21.9803C38.4379 21.5511 38.4874 21.2804 38.8374 20.98C39.6 20.3197 40.3297 19.623 41.0527 18.9198C41.5975 18.3915 41.7923 17.7312 41.5777 16.9983C41.3961 16.371 40.9471 15.9748 40.3099 15.8394C39.5769 15.6809 38.9661 15.9451 38.4643 16.4766C37.7742 17.2096 37.071 17.9359 36.4074 18.6953C36.14 18.999 35.8989 19.0419 35.5259 18.9231C33.5548 18.3123 31.5772 17.7279 29.5995 17.1402C29.0746 16.9851 28.4869 16.6417 28.028 16.7639C27.5625 16.886 27.2224 17.477 26.8262 17.8633C26.8031 17.8864 26.78 17.9095 26.7569 17.9326C26.4762 18.2298 26.5026 18.4675 26.8757 18.6656C27.5063 19.0056 28.1303 19.3556 28.7543 19.699C30.2037 20.4979 31.6531 21.2969 33.2643 22.1817V22.185ZM15.4655 12.3232H12.0549V15.2583H15.4655V12.3232ZM12.0351 21.2342H15.4523V18.3024H12.0351V21.2342ZM12.0384 27.2398H15.4589V24.3179H12.0384V27.2398ZM15.4688 30.2904H12.0549V33.2453H15.4688V30.2904Z" fill="#080E1E"/>
<path d="M9.32373 5.89217C10.1689 5.7403 11.0108 5.58843 11.856 5.43655C17.6965 4.40646 23.5403 3.37637 29.3808 2.34627C33.6531 1.59351 37.922 0.81434 42.2009 0.0945956C43.9837 -0.205848 45.6081 0.183738 46.8264 1.63313C47.1235 1.9864 47.3943 2.41561 47.5032 2.85472C47.7673 3.90132 47.9291 4.97763 48.1338 6.03084H9.33694C9.33364 5.98462 9.32703 5.93839 9.32373 5.89217Z" fill="#080E1E"/>
</svg>
