<svg width="42" height="50" viewBox="0 0 42 50" fill="none" xmlns="http://www.w3.org/2000/svg">
<path d="M20.9659 0C21.3893 0.270046 21.5308 0.661416 21.5126 1.15454C21.4893 1.78726 21.5165 2.42128 21.5035 3.0553C21.4983 3.31491 21.5711 3.45319 21.8308 3.56147C22.6723 3.9111 23.2163 4.55686 23.4748 5.42961C23.654 6.03624 23.8059 6.65069 23.9461 7.26645C24.0786 7.85481 23.7332 8.31141 23.1267 8.31662C21.4932 8.33228 19.8596 8.33228 18.2273 8.31662C17.5988 8.3101 17.2676 7.84567 17.4144 7.22209C17.5481 6.6546 17.6987 6.08973 17.8494 5.52615C18.0948 4.60643 18.6454 3.93588 19.5167 3.56278C19.7713 3.45319 19.8544 3.32274 19.8479 3.05921C19.8336 2.44215 19.8622 1.82379 19.8375 1.20803C19.8167 0.700553 19.9492 0.287005 20.3842 0H20.9672H20.9659Z" fill="#080E1E"/>
<path d="M20.6766 39.1605C26.798 39.1605 32.9208 39.1605 39.0422 39.1605C39.9733 39.1605 40.1914 39.3744 40.3018 40.3111C40.6381 43.1524 40.9823 45.9925 41.3316 48.8325C41.4251 49.5931 41.1108 49.9949 40.3616 49.9962C35.4867 49.9988 30.6119 49.9988 25.7371 49.9962C25.0203 49.9962 24.7281 49.7118 24.7242 48.9969C24.7164 47.468 24.7242 45.9377 24.7216 44.4087C24.7216 43.4864 24.4775 43.2359 23.5815 43.2346C21.622 43.2333 19.6624 43.232 17.7029 43.2346C16.8952 43.2346 16.6251 43.5047 16.6225 44.32C16.6173 45.849 16.6225 47.3792 16.6199 48.9082C16.6173 49.7249 16.3498 49.9962 15.5473 49.9962C10.7205 49.9962 5.89504 49.9962 1.06828 49.9962C0.211222 49.9962 -0.0848507 49.6296 0.0203331 48.7751C0.36705 45.9677 0.707274 43.1603 1.03711 40.3502C1.15268 39.3601 1.35526 39.1605 2.35775 39.1605C8.4636 39.1605 14.5695 39.1605 20.674 39.1605H20.6766Z" fill="#080E1E"/>
<path d="M20.6817 29.891C19.3702 29.891 18.0586 29.8884 16.7458 29.891C15.9978 29.8936 15.7121 30.178 15.7056 30.9164C15.7017 31.4213 15.7199 31.9261 15.6952 32.4284C15.6874 32.5745 15.5641 32.7154 15.4953 32.8589C15.4108 32.7206 15.2732 32.5901 15.2485 32.4414C14.9421 30.5485 14.6551 28.653 14.3577 26.7587C14.2123 25.8312 13.8318 25.0041 13.1371 24.3753C12.6813 23.9617 12.5826 23.5377 12.6968 22.9468C13.3877 19.3736 14.0383 15.7938 14.7213 12.2193C14.981 10.8626 15.9355 10.025 17.2912 10.0068C19.5416 9.97545 21.7933 9.97676 24.045 10.0068C25.4059 10.025 26.3668 10.8547 26.6253 12.2076C27.3304 15.893 28.0186 19.5823 28.6874 23.2755C28.7328 23.526 28.6536 23.9213 28.4796 24.0726C27.2901 25.1032 26.9876 26.4887 26.7941 27.9511C26.5941 29.4657 26.3409 30.9725 26.0967 32.4806C26.0747 32.6175 25.9461 32.7376 25.8682 32.8667C25.7942 32.7271 25.663 32.5901 25.6552 32.4479C25.6293 31.9287 25.6487 31.4069 25.6435 30.8864C25.6357 30.2041 25.3423 29.9001 24.667 29.8962C23.3386 29.8897 22.0115 29.8936 20.683 29.8936L20.6817 29.891ZM19.6143 15.7338C19.6143 15.5877 19.6312 15.4403 19.6117 15.2968C19.5507 14.8676 19.2754 14.6302 18.865 14.5962C18.4742 14.5636 18.1703 14.7515 18.0443 15.1376C17.9846 15.3177 17.9755 15.5186 17.9729 15.7103C17.9612 16.5635 18.2495 16.9888 18.8183 16.9797C19.3715 16.9705 19.6312 16.5727 19.6143 15.7325V15.7338ZM21.7323 15.7469H21.7258C21.7258 15.893 21.7154 16.0391 21.7271 16.1839C21.7647 16.634 22.0751 16.9523 22.4932 16.9784C22.8815 17.0032 23.275 16.7357 23.3295 16.3222C23.3788 15.9439 23.3775 15.5433 23.3061 15.1702C23.2256 14.7515 22.8815 14.5597 22.4685 14.5975C22.0582 14.6354 21.7894 14.8806 21.7349 15.3098C21.7167 15.4533 21.7323 15.6007 21.7323 15.7469ZM18.9326 21.0043C18.9326 21.0043 18.9196 21.0043 18.9131 21.003C18.9131 20.8738 18.9235 20.7434 18.9118 20.6142C18.865 20.1146 18.5248 19.7962 18.0573 19.808C17.5846 19.8197 17.2821 20.1393 17.2626 20.6625C17.2535 20.9208 17.2457 21.183 17.2717 21.4387C17.3158 21.8614 17.5652 22.1197 17.9859 22.1666C18.4313 22.2175 18.7352 22.001 18.8663 21.577C18.9222 21.3956 18.9131 21.1947 18.9326 21.003V21.0043ZM24.0827 21.0082C24.0827 20.8621 24.0931 20.716 24.0801 20.5712C24.0411 20.138 23.7515 19.8445 23.3425 19.8106C22.9088 19.7754 22.5257 20.0311 22.4621 20.4655C22.4127 20.7982 22.414 21.1465 22.4543 21.4804C22.5075 21.9175 22.8815 22.1953 23.3061 22.1745C23.7359 22.1536 24.0411 21.8496 24.0801 21.3956C24.0905 21.2665 24.0814 21.1373 24.0801 21.0069L24.0827 21.0082ZM18.1664 26.2082C18.1664 26.2082 18.1677 26.2082 18.169 26.2082C18.169 26.0621 18.182 25.916 18.1664 25.7712C18.1197 25.3198 17.8041 25.0054 17.3782 25.008C16.9354 25.0106 16.625 25.2402 16.5601 25.6785C16.5094 26.0243 16.5094 26.3921 16.5666 26.7379C16.6393 27.1788 16.9613 27.3914 17.4041 27.381C17.8132 27.3719 18.1158 27.0731 18.1638 26.6439C18.1807 26.5004 18.1664 26.353 18.1664 26.2069V26.2082ZM23.175 26.1886C23.175 26.3178 23.1659 26.4482 23.1763 26.5774C23.2126 27.0418 23.5022 27.3497 23.9255 27.3823C24.3735 27.4175 24.741 27.1384 24.8034 26.6648C24.8423 26.3634 24.8423 26.0477 24.806 25.7464C24.7488 25.2767 24.3748 24.978 23.9398 25.0067C23.5178 25.0341 23.2178 25.3433 23.1776 25.8012C23.1659 25.929 23.1763 26.0595 23.175 26.1899V26.1886Z" fill="#080E1E"/>
<path d="M8.22804 24.7494C8.22804 23.8949 8.22804 23.0365 8.22804 22.1781C8.22804 21.7189 8.41633 21.3862 8.88511 21.2845C9.42402 21.1684 9.86293 21.5363 9.87852 22.1285C9.8967 22.8434 9.88241 23.5597 9.88501 24.2759C9.88501 24.435 9.898 24.5929 9.90449 24.7494C10.2343 24.8003 10.5434 24.816 10.833 24.8994C11.8601 25.1969 12.5172 25.8883 12.6912 26.9398C13.2028 30.0499 13.6794 33.1652 14.1534 36.2818C14.2884 37.1676 13.9859 37.499 13.1132 37.5003C10.3927 37.5016 7.67226 37.5016 4.95306 37.5003C4.09211 37.5003 3.78046 37.1233 3.91161 36.2844C4.38039 33.2996 4.85177 30.3134 5.30367 27.3259C5.5491 25.707 6.39966 24.9021 8.04624 24.7951C8.09169 24.7925 8.13584 24.7729 8.22804 24.7494ZM9.88111 33.8788C9.88111 33.5213 9.8954 33.1626 9.87722 32.8051C9.85384 32.3237 9.52661 32.0015 9.0799 31.9885C8.61631 31.9754 8.24882 32.3068 8.23453 32.8051C8.21505 33.5044 8.21505 34.2036 8.23453 34.9029C8.24882 35.3921 8.63319 35.743 9.0812 35.7287C9.51362 35.7143 9.85384 35.3725 9.87722 34.9029C9.8941 34.5624 9.88111 34.2193 9.88111 33.8788Z" fill="#080E1E"/>
<path d="M33.1137 24.7614C33.4163 24.7915 33.6747 24.7928 33.9227 24.8449C35.0525 25.0785 35.8238 25.9186 36.0134 27.1279C36.4991 30.2263 36.9783 33.3246 37.4574 36.423C37.5548 37.0518 37.2107 37.4901 36.5835 37.4927C33.7345 37.5019 30.8841 37.5019 28.0338 37.4927C27.3962 37.4901 27.0741 37.0988 27.1728 36.4243C27.4377 34.607 27.7247 32.7937 28.0065 30.9803C28.2052 29.6953 28.3961 28.4103 28.6155 27.1292C28.8661 25.6668 29.7531 24.8867 31.2243 24.7941C31.2854 24.7901 31.3464 24.7758 31.4581 24.7601C31.4581 23.9252 31.4555 23.0994 31.4581 22.2749C31.4607 21.6266 31.7399 21.2782 32.2554 21.2652C32.7878 21.2509 33.1072 21.6213 33.1111 22.2736C33.1163 23.0994 33.1111 23.9239 33.1111 24.7628L33.1137 24.7614ZM33.1124 33.8817C33.1124 33.5242 33.1267 33.1655 33.1085 32.808C33.0826 32.3071 32.7307 31.9744 32.2671 31.9835C31.823 31.9927 31.4788 32.3175 31.4659 32.7937C31.4477 33.4929 31.4477 34.1922 31.4659 34.8914C31.4776 35.3793 31.858 35.7355 32.3034 35.7237C32.7333 35.7133 33.0826 35.3715 33.1085 34.9045C33.128 34.564 33.1124 34.2222 33.1124 33.8804V33.8817Z" fill="#080E1E"/>
<path d="M20.7203 31.5556C21.5787 31.5556 22.437 31.553 23.2941 31.5556C23.8797 31.5582 23.981 31.656 23.9823 32.2261C23.9849 33.7707 23.9745 35.3166 23.9888 36.8612C23.9927 37.3178 23.8265 37.524 23.3629 37.5031C22.9591 37.4835 22.5539 37.5031 22.1487 37.4979C21.6059 37.4927 21.5112 37.3961 21.5047 36.8312C21.4982 36.1803 21.5228 35.5293 21.4891 34.8796C21.4553 34.2404 20.8749 33.896 20.3165 34.1451C19.9542 34.3069 19.8438 34.6135 19.8412 34.9787C19.8373 35.5971 19.8425 36.2155 19.8373 36.8325C19.8321 37.3948 19.7347 37.4927 19.1906 37.4966C18.7855 37.5005 18.3803 37.4822 17.9765 37.5018C17.5103 37.524 17.348 37.3126 17.3531 36.8586C17.3674 35.314 17.357 33.7681 17.3596 32.2235C17.3596 31.6534 17.4609 31.5569 18.0492 31.5543C18.94 31.5517 19.8295 31.5543 20.7203 31.5543V31.5556Z" fill="#080E1E"/>
<path d="M23.0616 47.4538C23.0616 47.9731 23.0707 48.4936 23.059 49.0128C23.0434 49.6964 22.746 49.9899 22.0721 49.9951C21.1345 50.0017 20.197 50.0017 19.2594 49.9951C18.6114 49.9899 18.3011 49.6964 18.292 49.0454C18.2777 47.9731 18.2764 46.902 18.292 45.8296C18.3011 45.1969 18.601 44.9099 19.2269 44.9047C20.197 44.8956 21.167 44.8956 22.137 44.9047C22.737 44.9112 23.033 45.1956 23.0551 45.7983C23.0746 46.3502 23.059 46.902 23.059 47.4551H23.0603L23.0616 47.4538Z" fill="#080E1E"/>
</svg>
