<svg width="34" height="50" viewBox="0 0 34 50" fill="none" xmlns="http://www.w3.org/2000/svg">
<path d="M0 36.25C0 41.075 3.27083 45 7.29167 45L4.16667 48.75V50H29.1667V48.75L26.0417 45C30.0625 45 33.3333 41.075 33.3333 36.25V10C33.3333 1.25 25.875 0 16.6667 0C7.45833 0 0 1.25 0 10V36.25ZM16.6667 40C14.375 40 12.5 37.75 12.5 35C12.5 32.25 14.375 30 16.6667 30C18.9583 30 20.8333 32.25 20.8333 35C20.8333 37.75 18.9583 40 16.6667 40ZM29.1667 22.5H4.16667V10H29.1667V22.5ZM0 36.25C0 41.075 3.27083 45 7.29167 45L4.91667 47.875C4.25 48.65 4.70833 50 5.64583 50H27.6875C28.625 50 29.0833 48.65 28.4167 47.875L26.0417 45C30.0625 45 33.3333 41.075 33.3333 36.25V10C33.3333 1.25 25.875 0 16.6667 0C7.45833 0 0 1.25 0 10V36.25ZM16.6667 40C14.375 40 12.5 37.75 12.5 35C12.5 32.25 14.375 30 16.6667 30C18.9583 30 20.8333 32.25 20.8333 35C20.8333 37.75 18.9583 40 16.6667 40ZM29.1667 22.5H4.16667V10H29.1667V22.5Z" fill="#080E1E"/>
</svg>
