<svg width="52" height="49" viewBox="0 0 52 49" fill="none" xmlns="http://www.w3.org/2000/svg">
<path d="M0.352051 23.1667C0.599973 22.6102 1.03518 22.4269 1.64286 22.4295C5.03832 22.4468 8.43377 22.4309 11.8279 22.4468C12.2065 22.4481 12.3695 22.3352 12.5178 21.9859C12.9354 20.9951 13.4151 20.0295 13.8719 19.0547C13.9325 18.9245 13.9999 18.7983 14.0983 18.6017C13.3329 18.6017 12.635 18.6017 11.937 18.6017C10.7769 18.6017 9.61814 18.6044 8.45803 18.6017C7.69136 18.6004 7.21572 18.2073 7.22785 17.5963C7.23997 17.0066 7.71291 16.6161 8.44321 16.6161C10.6624 16.6122 12.8802 16.6228 15.0994 16.6029C15.3123 16.6015 15.5925 16.4846 15.7246 16.3266C18.643 12.8428 22.2945 10.5079 26.7558 9.42807C27.0401 9.359 27.1775 9.25142 27.1627 8.93399C27.1357 8.33896 27.1411 7.74129 27.1613 7.14494C27.1694 6.88329 27.0643 6.77571 26.8299 6.68273C25.1968 6.03857 24.2994 4.52445 24.5932 2.94393C24.9031 1.26246 26.3017 0.130861 28.1059 0.122892C30.4086 0.112267 32.7113 0.116252 35.014 0.121564C36.8869 0.125549 38.2814 1.21332 38.5981 2.90807C38.9147 4.59618 38.0039 6.0731 36.2307 6.74649C36.1849 6.76375 36.1391 6.785 36.0784 6.80891V9.17837C37.5673 9.7362 39.0643 10.1559 40.4319 10.8306C46.9385 14.0421 50.7651 19.234 51.7959 26.3344C52.4898 31.1211 51.3944 35.5745 48.8168 39.6812C48.5527 40.1022 48.2037 40.3453 47.6917 40.2576C47.2498 40.1819 46.9237 39.895 46.9048 39.4687C46.8914 39.1512 47.0194 38.786 47.1932 38.5071C48.3937 36.5812 49.2102 34.5133 49.6441 32.2965C51.331 23.6807 46.4184 15.0595 38.0632 11.9689C29.107 8.65507 19.0149 12.7166 14.9795 21.2581C10.1234 31.5355 15.9132 43.6192 27.0751 46.4057C32.1009 47.6608 36.8694 46.9317 41.3158 44.2687C41.4169 44.2089 41.5139 44.1425 41.6163 44.088C42.1593 43.7985 42.7319 43.93 43.0257 44.4081C43.318 44.8836 43.1806 45.4507 42.6578 45.7854C40.7539 47.0034 38.6964 47.8853 36.4907 48.4046C26.5415 50.7422 16.6543 45.7629 12.7562 36.4511C12.6134 36.1097 12.4261 36.0274 12.0812 36.0287C9.99676 36.042 7.91233 36.0367 5.82924 36.034C5.61097 36.034 5.38999 36.034 5.1771 35.9968C4.71225 35.9131 4.38618 35.5014 4.38887 35.0379C4.39157 34.5943 4.69608 34.1945 5.14072 34.0989C5.35092 34.0537 5.57458 34.051 5.79152 34.051C7.70752 34.0471 9.62353 34.0497 11.5395 34.0484C11.6379 34.0484 11.7363 34.0351 11.8589 34.0258C11.6541 32.7707 11.4533 31.5395 11.2391 30.2286C11.1057 30.2286 10.9278 30.2286 10.7513 30.2286C9.49014 30.2286 8.23032 30.2326 6.96915 30.2272C6.24963 30.2246 5.78613 29.8142 5.8023 29.2099C5.81712 28.6255 6.26715 28.2443 6.96915 28.2416C8.37853 28.2363 9.78926 28.2403 11.2054 28.2403C11.3711 26.9706 11.5328 25.7314 11.7026 24.4298H11.1299C8.02012 24.4298 4.91032 24.4191 1.80186 24.4377C1.18475 24.4391 0.688902 24.297 0.352051 23.763V23.1667ZM31.6064 4.89236C32.7652 4.89236 33.9226 4.89767 35.08 4.89103C36.0084 4.88572 36.6484 4.31062 36.647 3.50575C36.6457 2.69822 36.007 2.11648 35.0746 2.11249C32.7584 2.1032 30.4423 2.1032 28.1261 2.11249C27.1923 2.11648 26.5685 2.69291 26.5698 3.50973C26.5698 4.33453 27.1842 4.88439 28.1315 4.8897C29.2889 4.89634 30.4476 4.89103 31.6051 4.89103L31.6064 4.89236ZM29.1973 8.8968H34.0129V6.90985H29.1973V8.8968Z" fill="#080E1E"/>
<path d="M0.351074 35.1173C0.436629 35.0101 0.522183 34.9029 0.609383 34.7974C1.09145 34.2136 1.92232 34.1559 2.44223 34.6704C2.95391 35.1783 2.92923 35.9897 2.38793 36.4646C1.8417 36.9428 1.00425 36.8323 0.571542 36.2222C0.489278 36.1068 0.425112 35.9798 0.352719 35.8577C0.352719 35.6104 0.352719 35.3647 0.352719 35.1173H0.351074Z" fill="#080E1E"/>
<path d="M31.1193 12.3331C39.9697 12.3646 47.1027 19.4736 47.0807 28.243C47.06 37.0015 39.8458 44.1324 31.0449 44.0928C22.2179 44.0531 15.0711 36.9003 15.1083 28.1446C15.1455 19.3943 22.3267 12.303 31.1179 12.3345L31.1193 12.3331ZM31.0917 14.3818C23.4009 14.3846 17.1715 20.5719 17.1701 28.2102C17.1701 35.8321 23.4285 42.0481 31.0986 42.0454C38.7729 42.0427 45.0244 35.8253 45.0189 28.2034C45.0134 20.5623 38.7825 14.3791 31.0917 14.3832V14.3818Z" fill="#080E1E"/>
<path d="M44.6234 42.8164C44.6482 42.1384 45.1967 41.629 45.8807 41.6489C46.5514 41.6671 47.095 42.2293 47.0817 42.8908C47.0669 43.5821 46.4754 44.1245 45.7766 44.0898C45.0992 44.0551 44.5987 43.5027 44.6234 42.8181V42.8164Z" fill="#080E1E"/>
<path d="M30.8039 31.876C28.4571 31.8725 26.8057 30.0401 27.5722 28.2664C27.6862 28.0026 27.6403 27.8514 27.3917 27.6661C26.7095 27.1527 26.0496 26.6204 25.3911 26.0882C24.8421 25.645 24.8007 25.148 25.2609 24.7693C25.7226 24.3895 26.4047 24.4211 26.9685 24.8608C27.6403 25.3836 28.3076 25.9088 28.9617 26.4446C29.1748 26.6193 29.3494 26.6837 29.672 26.5841C30.4177 26.3543 31.1975 26.3555 31.9448 26.5829C32.2629 26.679 32.4376 26.6228 32.6566 26.4481C34.268 25.1597 35.8897 23.8807 37.5071 22.5993C37.624 22.5067 37.7364 22.4082 37.8652 22.325C38.3357 22.0179 38.9617 22.0331 39.373 22.3543C39.7814 22.6732 39.8199 23.1843 39.4263 23.5454C39.1259 23.8209 38.7841 24.0706 38.4585 24.3285C37.0765 25.4247 35.7003 26.5266 34.302 27.611C34.0209 27.8291 33.9365 27.9967 34.0712 28.318C34.8051 30.0671 33.1241 31.8795 30.8039 31.876ZM30.8113 28.1867C30.1247 28.1867 29.5846 28.6169 29.592 29.1573C29.5994 29.6732 30.1336 30.1046 30.7817 30.1187C31.4461 30.1327 32.0203 29.6908 32.0291 29.1585C32.038 28.6192 31.4964 28.1878 30.8113 28.1867Z" fill="#080E1E"/>
<path d="M32.3196 18.4346C32.3196 18.5739 32.3311 18.7142 32.318 18.8523C32.2722 19.3149 31.7949 19.6427 31.1541 19.6585C30.5198 19.6742 29.9705 19.3677 29.9002 18.9163C29.8528 18.6132 29.8577 18.3033 29.8921 17.999C29.946 17.5218 30.4855 17.2019 31.1508 17.2165C31.8194 17.231 32.2853 17.5645 32.3213 18.0596C32.3294 18.1843 32.3213 18.31 32.3213 18.4358C32.3213 18.4358 32.3213 18.4358 32.3196 18.4358V18.4346Z" fill="#080E1E"/>
<path d="M42.1519 29.4311C41.7613 29.4101 41.3617 29.4246 40.9847 29.3633C40.1268 29.2227 39.6301 28.6944 39.7091 28.066C39.7836 27.4828 40.4045 27.0434 41.2624 27.0046C41.7929 26.9804 42.3257 26.9868 42.8586 26.9981C43.879 27.0191 44.6037 27.5135 44.6195 28.1775C44.6353 28.8366 43.9151 29.3568 42.9105 29.4069C42.6599 29.4198 42.407 29.4085 42.1542 29.4085C42.1542 29.4149 42.1542 29.4214 42.1542 29.4295L42.1519 29.4311Z" fill="#080E1E"/>
<path d="M29.8698 39.2259C29.8698 38.9487 29.86 38.6715 29.8715 38.3942C29.9123 37.4798 30.3863 36.8135 31.0221 36.7666C31.6513 36.7196 32.2136 37.33 32.2887 38.2265C32.3394 38.828 32.3312 39.4473 32.2985 40.0532C32.2479 40.9967 31.6971 41.6741 31.0531 41.6495C30.4043 41.6249 29.9058 40.9229 29.8698 39.9727C29.86 39.7245 29.8698 39.4741 29.8698 39.2237V39.2259Z" fill="#080E1E"/>
<path d="M21.2714 26.988C21.4397 26.9995 21.6102 26.9913 21.7773 27.024C22.1827 27.1008 22.4651 27.5517 22.4876 28.1316C22.5114 28.7508 22.2652 29.2916 21.8451 29.3749C21.4736 29.4484 21.0851 29.4484 20.7124 29.3831C20.2935 29.3112 20.0157 28.7557 20.0303 28.1725C20.0462 27.5566 20.3623 27.0779 20.8073 27.0158C20.9609 26.9946 21.1167 27.0125 21.2714 27.0125V26.988Z" fill="#080E1E"/>
</svg>
